# 3ds Max Wavefront OBJ Exporter v0.99 - (c)2007 guruware
# File Created: 26.01.2024 09:33:35

mtllib FordEscort_Jadi.mtl

#
# object s_0018
#

v  -715.4266 794.3895 -1291.9576
v  -745.1538 642.3950 -1305.4453
v  -747.7418 644.6221 -1116.0980
v  -718.6091 803.4297 -964.8997
v  -751.8349 643.3843 -905.8576
v  -756.1126 647.0831 -641.6921
v  -721.0211 804.0696 -649.4117
v  -735.8619 581.0820 -1121.6172
v  -691.3436 787.2579 -1514.8845
v  -740.4927 642.9544 -1501.9117
v  -730.0157 629.7660 -1733.9495
v  -722.5868 515.5029 -1601.8376
v  -731.1205 601.7800 -1484.0206
v  -704.2290 751.9237 -1752.8141
v  -705.0927 432.6374 -1783.8903
v  -713.2802 426.6907 -1652.9612
v  -721.5965 626.1389 -1890.6345
v  -707.8453 519.2592 -1887.9613
v  -692.7018 716.0098 -1899.7463
v  -696.6234 344.8099 -1677.8098
v  -693.6996 365.7027 -1754.0226
v  -665.1808 272.3134 -1724.0870
v  -681.3467 276.9508 -1674.4814
v  -669.6407 340.8911 -1813.1166
v  -633.0433 183.2383 -730.3816
v  -665.1823 184.7733 388.3737
v  -723.9659 341.0836 363.6484
v  -710.1074 339.9704 -730.1892
v  -723.4333 806.7819 -195.1314
v  -728.4319 812.8226 344.5258
v  -673.7895 882.9285 337.1152
v  -669.0886 871.8143 -190.8813
v  -580.8973 1230.1449 -261.3401
v  -664.6574 876.4623 -611.7106
v  -577.8801 1252.1891 -195.1081
v  -576.7037 1263.1296 -108.5143
v  -572.2722 1274.0338 270.8682
v  -734.1248 857.1605 960.2221
v  -732.7085 867.3276 1351.5691
v  -646.8969 939.4484 1308.7750
v  -681.7787 906.5802 953.0717
v  -566.2849 1245.5236 823.7460
v  -721.7417 483.8025 -1016.6978
v  -689.1253 328.6668 -939.6484
v  -622.2430 180.7299 -964.9923
v  -757.3646 647.7462 -151.8865
v  -725.7047 351.4818 716.4134
v  -675.0751 197.3438 740.8747
v  -760.5010 644.8154 400.5273
v  -766.7623 673.5102 1032.4388
v  -762.4673 649.5768 718.9194
v  -760.5439 626.4882 1031.3142
v  -761.5947 600.5719 1222.6278
v  -767.4528 675.5388 1366.5088
v  -740.5065 454.9075 745.8069
v  -755.0370 574.5124 871.5023
v  -755.1426 495.1335 1370.8768
v  -741.5405 513.4338 1690.4093
v  -757.9094 671.0118 1666.4751
v  -568.4385 1201.2521 982.5555
v  -731.3161 835.5296 1658.2983
v  -669.0415 351.1508 1878.4170
v  -697.8678 396.1261 1901.9387
v  -723.4896 412.9607 1768.8682
v  -700.5974 331.0821 1777.0161
v  -731.4065 714.6149 1962.4749
v  -723.8824 791.0319 1928.5570
v  -739.0765 659.0786 1951.5007
v  -742.1255 383.7503 1457.3318
v  -709.4622 274.7438 1453.7205
v  -726.6062 505.9534 1917.0640
v  -752.5137 346.4927 746.2302
v  -776.3475 442.9384 781.6392
v  -752.1773 369.1834 1417.3956
v  -776.6188 477.6180 1349.1355
v  -797.2540 571.5645 1209.2960
v  -799.4836 595.9100 1026.6401
v  -793.9095 563.4196 897.7579
v  -703.3919 343.1050 -1666.2526
v  -726.2662 421.3601 -1640.4648
v  -714.0215 320.1895 -971.2009
v  -752.0354 460.3926 -1037.9971
v  -773.0101 557.6329 -1143.1434
v  -778.1470 601.9223 -1296.7321
v  -770.7106 581.4995 -1460.2542
v  -749.0403 502.3224 -1587.8203
v  715.3994 794.3895 -1291.9576
v  718.5819 803.4297 -964.8997
v  747.7145 644.6221 -1116.0980
v  745.1266 642.3950 -1305.4453
v  751.8077 643.3843 -905.8576
v  720.9939 804.0696 -649.4117
v  756.0854 647.0831 -641.6921
v  735.8347 581.0820 -1121.6172
v  740.4655 642.9544 -1501.9117
v  691.3163 787.2579 -1514.8845
v  731.0933 601.7800 -1484.0206
v  722.5596 515.5029 -1601.8376
v  729.9885 629.7660 -1733.9495
v  704.2018 751.9237 -1752.8141
v  713.2529 426.6907 -1652.9612
v  705.0654 432.6374 -1783.8903
v  707.8181 519.2592 -1887.9613
v  721.5693 626.1389 -1890.6345
v  692.6746 716.0098 -1899.7463
v  696.5961 344.8099 -1677.8098
v  681.3195 276.9508 -1674.4814
v  665.1536 272.3134 -1724.0870
v  693.6724 365.7027 -1754.0226
v  669.6135 340.8911 -1813.1166
v  633.0161 183.2383 -730.3816
v  710.0801 339.9704 -730.1892
v  723.9387 341.0836 363.6484
v  665.1550 184.7733 388.3737
v  673.7623 882.9285 337.1152
v  728.4047 812.8226 344.5258
v  723.4061 806.7819 -195.1314
v  669.0614 871.8143 -190.8813
v  580.8701 1230.1449 -261.3401
v  664.6302 876.4623 -611.7106
v  577.8529 1252.1891 -195.1081
v  576.6765 1263.1296 -108.5143
v  572.2449 1274.0338 270.8682
v  734.0975 857.1605 960.2221
v  681.7515 906.5802 953.0717
v  646.8697 939.4484 1308.7750
v  732.6813 867.3276 1351.5691
v  566.2576 1245.5236 823.7460
v  721.7145 483.8025 -1016.6978
v  689.0981 328.6668 -939.6484
v  622.2158 180.7299 -964.9923
v  757.3374 647.7462 -151.8865
v  725.6774 351.4818 716.4134
v  675.0479 197.3438 740.8747
v  760.4738 644.8154 400.5273
v  766.7350 673.5102 1032.4388
v  762.4401 649.5768 718.9194
v  767.4256 675.5388 1366.5088
v  761.5675 600.5719 1222.6278
v  760.5167 626.4882 1031.3142
v  740.4792 454.9075 745.8069
v  755.0098 574.5124 871.5023
v  755.1154 495.1335 1370.8768
v  757.8822 671.0118 1666.4751
v  741.5133 513.4338 1690.4093
v  568.4113 1201.2521 982.5555
v  731.2889 835.5296 1658.2983
v  669.0143 351.1508 1878.4170
v  700.5701 331.0821 1777.0161
v  723.4623 412.9607 1768.8682
v  697.8406 396.1261 1901.9387
v  723.8553 791.0319 1928.5570
v  731.3793 714.6149 1962.4749
v  739.0493 659.0786 1951.5007
v  709.4350 274.7438 1453.7205
v  742.0983 383.7503 1457.3318
v  726.5790 505.9534 1917.0640
v  776.3204 442.9384 781.6392
v  752.4865 346.4927 746.2302
v  752.1501 369.1834 1417.3956
v  776.5916 477.6180 1349.1355
v  797.2268 571.5645 1209.2960
v  799.4564 595.9100 1026.6401
v  793.8823 563.4196 897.7579
v  726.2390 421.3601 -1640.4648
v  703.3647 343.1050 -1666.2526
v  713.9943 320.1895 -971.2009
v  752.0082 460.3926 -1037.9971
v  772.9829 557.6329 -1143.1434
v  778.1198 601.9223 -1296.7321
v  770.6834 581.4995 -1460.2542
v  749.0131 502.3224 -1587.8203
v  -757.4044 28.7800 980.9904
v  -757.4044 14.3046 1070.5984
v  -757.4044 297.9767 1070.5984
v  -757.4044 28.7799 1160.2064
v  -757.4044 69.0776 1238.0703
v  -757.4044 130.5047 1299.4976
v  -757.4045 208.3687 1339.7952
v  -757.4045 297.9767 1354.2705
v  -757.4045 387.5848 1339.7952
v  -757.4045 465.4488 1299.4976
v  -757.4045 526.8759 1238.0703
v  -757.4045 567.1735 1160.2064
v  -757.4044 581.6489 1070.5984
v  -757.4044 567.1736 980.9902
v  -757.4044 526.8760 903.1263
v  -757.4044 465.4488 841.6992
v  -757.4044 387.5847 801.4016
v  -757.4044 297.9767 786.9262
v  -757.4044 208.3687 801.4016
v  -757.4044 130.5047 841.6992
v  -757.4044 69.0776 903.1263
v  -567.4761 297.9767 1070.5984
v  -567.4761 14.3046 1070.5984
v  -567.4761 28.7800 980.9904
v  -567.4761 28.7799 1160.2064
v  -567.4761 69.0776 1238.0703
v  -567.4761 130.5048 1299.4976
v  -567.4761 208.3687 1339.7952
v  -567.4761 297.9767 1354.2706
v  -567.4761 387.5848 1339.7952
v  -567.4761 465.4488 1299.4976
v  -567.4761 526.8760 1238.0703
v  -567.4761 567.1735 1160.2064
v  -567.4761 581.6489 1070.5984
v  -567.4761 567.1736 980.9904
v  -567.4761 526.8760 903.1263
v  -567.4761 465.4488 841.6992
v  -567.4761 387.5848 801.4016
v  -567.4760 297.9767 786.9262
v  -567.4760 208.3687 801.4017
v  -567.4760 130.5047 841.6992
v  -567.4760 69.0776 903.1263
v  757.3773 28.7800 980.9904
v  757.3774 297.9767 1070.5984
v  757.3773 14.3046 1070.5984
v  757.3774 28.7800 1160.2064
v  757.3774 69.0776 1238.0703
v  757.3774 130.5048 1299.4976
v  757.3774 208.3687 1339.7952
v  757.3774 297.9767 1354.2706
v  757.3774 387.5848 1339.7952
v  757.3774 465.4488 1299.4976
v  757.3774 526.8760 1238.0703
v  757.3774 567.1736 1160.2064
v  757.3774 581.6489 1070.5984
v  757.3774 567.1736 980.9904
v  757.3774 526.8760 903.1263
v  757.3773 465.4488 841.6992
v  757.3773 387.5847 801.4016
v  757.3773 297.9767 786.9262
v  757.3773 208.3687 801.4017
v  757.3773 130.5047 841.6992
v  757.3773 69.0776 903.1263
v  567.4490 297.9768 1070.5985
v  567.4489 28.7800 980.9904
v  567.4489 14.3046 1070.5985
v  567.4490 28.7800 1160.2064
v  567.4490 69.0776 1238.0704
v  567.4490 130.5048 1299.4976
v  567.4491 208.3687 1339.7953
v  567.4491 297.9767 1354.2706
v  567.4491 387.5848 1339.7953
v  567.4491 465.4488 1299.4976
v  567.4491 526.8760 1238.0703
v  567.4491 567.1736 1160.2064
v  567.4490 581.6489 1070.5985
v  567.4490 567.1736 980.9904
v  567.4490 526.8760 903.1263
v  567.4489 465.4488 841.6993
v  567.4489 387.5848 801.4017
v  567.4489 297.9767 786.9263
v  567.4489 208.3687 801.4017
v  567.4489 130.5047 841.6993
v  567.4489 69.0776 903.1265
v  -757.4041 28.7799 -1406.5190
v  -757.4041 14.3046 -1316.9111
v  -757.4041 297.9767 -1316.9111
v  -757.4041 28.7799 -1227.3031
v  -757.4041 69.0776 -1149.4391
v  -757.4041 130.5047 -1088.0120
v  -757.4041 208.3687 -1047.7142
v  -757.4041 297.9767 -1033.2389
v  -757.4041 387.5848 -1047.7142
v  -757.4041 465.4488 -1088.0120
v  -757.4041 526.8759 -1149.4391
v  -757.4041 567.1735 -1227.3031
v  -757.4041 581.6489 -1316.9111
v  -757.4041 567.1736 -1406.5190
v  -757.4041 526.8760 -1484.3831
v  -757.4041 465.4488 -1545.8102
v  -757.4041 387.5847 -1586.1079
v  -757.4040 297.9767 -1600.5833
v  -757.4040 208.3687 -1586.1079
v  -757.4040 130.5047 -1545.8102
v  -757.4040 69.0776 -1484.3831
v  -567.4756 297.9767 -1316.9111
v  -567.4756 14.3046 -1316.9111
v  -567.4756 28.7800 -1406.5190
v  -567.4756 28.7799 -1227.3031
v  -567.4756 69.0776 -1149.4391
v  -567.4756 130.5048 -1088.0120
v  -567.4757 208.3687 -1047.7142
v  -567.4757 297.9767 -1033.2389
v  -567.4758 387.5848 -1047.7142
v  -567.4758 465.4488 -1088.0120
v  -567.4757 526.8760 -1149.4391
v  -567.4756 567.1735 -1227.3031
v  -567.4756 581.6489 -1316.9111
v  -567.4756 567.1736 -1406.5190
v  -567.4756 526.8760 -1484.3831
v  -567.4756 465.4488 -1545.8102
v  -567.4756 387.5848 -1586.1079
v  -567.4756 297.9767 -1600.5833
v  -567.4756 208.3687 -1586.1079
v  -567.4756 130.5047 -1545.8102
v  -567.4756 69.0776 -1484.3831
v  757.3769 28.7800 -1406.5190
v  757.3770 297.9767 -1316.9111
v  757.3770 14.3046 -1316.9111
v  757.3770 28.7800 -1227.3030
v  757.3770 69.0776 -1149.4391
v  757.3770 130.5048 -1088.0120
v  757.3771 208.3687 -1047.7142
v  757.3771 297.9767 -1033.2389
v  757.3771 387.5848 -1047.7142
v  757.3771 465.4488 -1088.0120
v  757.3771 526.8760 -1149.4391
v  757.3771 567.1736 -1227.3030
v  757.3770 581.6489 -1316.9111
v  757.3770 567.1736 -1406.5190
v  757.3770 526.8760 -1484.3831
v  757.3770 465.4488 -1545.8102
v  757.3769 387.5847 -1586.1079
v  757.3769 297.9767 -1600.5833
v  757.3769 208.3687 -1586.1079
v  757.3769 130.5047 -1545.8102
v  757.3769 69.0776 -1484.3829
v  567.4486 297.9768 -1316.9110
v  567.4485 28.7800 -1406.5190
v  567.4485 14.3046 -1316.9110
v  567.4486 28.7800 -1227.3030
v  567.4486 69.0776 -1149.4390
v  567.4487 130.5048 -1088.0118
v  567.4487 208.3687 -1047.7142
v  567.4487 297.9767 -1033.2389
v  567.4487 387.5848 -1047.7141
v  567.4487 465.4488 -1088.0118
v  567.4487 526.8760 -1149.4391
v  567.4487 567.1736 -1227.3030
v  567.4487 581.6489 -1316.9110
v  567.4486 567.1736 -1406.5190
v  567.4486 526.8760 -1484.3831
v  567.4485 465.4488 -1545.8102
v  567.4485 387.5848 -1586.1079
v  567.4485 297.9767 -1600.5833
v  567.4485 208.3687 -1586.1079
v  567.4485 130.5047 -1545.8102
v  567.4485 69.0776 -1484.3829
v  -636.2982 328.3135 -1819.6410
v  -567.9070 319.1425 -1828.6512
v  -579.1653 263.0406 -1774.3059
v  -647.6260 267.6989 -1753.1644
v  -473.1955 319.5458 -1842.8225
v  -504.0176 260.6752 -1784.1141
v  -419.3904 312.6557 -1844.6869
v  -427.2415 251.4705 -1782.7449
v  -318.0147 314.0455 -1855.2941
v  -311.1230 251.4746 -1795.0094
v  -668.6794 479.5141 -1890.3188
v  -572.4020 727.9917 -1914.5251
v  -582.3467 472.3530 -1900.8717
v  -467.1742 725.1183 -1927.9617
v  -475.8109 473.7895 -1912.9883
v  -422.1078 686.2291 -1928.8276
v  -408.5739 519.7184 -1925.9828
v  -347.7041 529.8711 -1929.3929
v  -347.2519 683.0297 -1926.2324
v  -0.0136 302.8603 -1857.9248
v  -0.0136 246.5948 -1799.6692
v  -0.0136 684.6047 -1932.5681
v  -0.0136 520.9293 -1937.1644
v  636.2710 328.3135 -1819.6410
v  647.5988 267.6989 -1753.1644
v  579.1381 263.0406 -1774.3059
v  567.8798 319.1425 -1828.6512
v  503.9904 260.6752 -1784.1141
v  473.1683 319.5458 -1842.8225
v  427.2144 251.4705 -1782.7449
v  419.3631 312.6557 -1844.6869
v  311.0959 251.4746 -1795.0094
v  317.9876 314.0455 -1855.2941
v  668.6522 479.5141 -1890.3188
v  582.3195 472.3530 -1900.8717
v  572.3749 727.9917 -1914.5251
v  475.7837 473.7895 -1912.9883
v  467.1469 725.1183 -1927.9617
v  408.5466 519.7184 -1925.9828
v  422.0806 686.2291 -1928.8276
v  347.6769 529.8711 -1929.3929
v  347.2248 683.0297 -1926.2324
v  -438.6499 858.1649 -985.6338
v  -580.5430 842.9331 -981.5815
v  -591.5303 853.7983 -771.1824
v  -400.7779 907.5479 -731.0438
v  -432.2804 807.7877 -1589.3474
v  -421.2013 763.7603 -1804.0492
v  -452.4577 773.0931 -1801.0721
v  -461.9506 812.8965 -1583.2511
v  -566.7289 772.0538 -1775.8397
v  -572.6161 801.9940 -1566.4510
v  -309.6214 763.6612 -1822.2058
v  -449.9857 901.0956 1536.9271
v  -635.9177 897.9521 1465.2924
v  -637.5509 863.4094 1708.3794
v  -407.7769 874.3453 1733.3394
v  -359.5478 1272.5748 -293.6008
v  -577.0377 894.2055 -667.2388
v  -496.2728 1258.1255 -272.3430
v  -438.7195 945.7916 1411.4620
v  -380.5815 1275.4751 1012.4091
v  -529.1775 1237.3816 985.5693
v  -623.1785 936.9404 1352.7853
v  -380.4185 1313.5924 859.5025
v  -530.9099 1270.9218 827.6422
v  -456.9434 835.3201 -1356.9092
v  -571.2746 823.3740 -1329.4230
v  -217.0438 867.0490 -1023.2578
v  -233.1846 841.7982 -1379.4337
v  -168.1582 915.3411 -767.4589
v  -489.1190 1286.6022 -209.2721
v  -356.1324 1303.1488 -218.2948
v  -506.9635 1302.9949 -97.9567
v  -376.5604 1328.1355 -102.0434
v  -384.6137 1346.6047 271.2809
v  -523.8071 1306.9436 279.2782
v  -244.1107 814.0932 -1621.4463
v  -628.4315 817.0676 1936.1743
v  -0.0136 1307.9656 -249.0573
v  -0.0136 1284.3405 -313.4934
v  -0.0136 1338.5205 -126.1404
v  -0.0136 907.2628 1573.4004
v  -0.0136 880.8640 1738.0957
v  -0.0136 954.6905 1441.6733
v  -0.0136 1323.7634 903.3026
v  -0.0136 1285.9191 1040.6113
v  -0.0136 1364.0546 283.9834
v  -0.0136 913.6382 -776.3616
v  -0.0136 875.8646 -1050.1991
v  -0.0136 852.9673 -1402.9448
v  -0.0136 826.6445 -1636.7137
v  -0.0136 776.3958 -1832.4833
v  -0.0136 817.9681 1981.0873
v  438.6227 858.1649 -985.6338
v  400.7507 907.5479 -731.0438
v  591.5031 853.7983 -771.1824
v  580.5157 842.9331 -981.5815
v  432.2532 807.7877 -1589.3474
v  461.9234 812.8965 -1583.2511
v  452.4305 773.0931 -1801.0721
v  421.1740 763.7603 -1804.0492
v  566.7017 772.0538 -1775.8397
v  572.5889 801.9940 -1566.4510
v  309.5942 763.6612 -1822.2058
v  449.9585 901.0956 1536.9271
v  407.7497 874.3453 1733.3394
v  637.5237 863.4094 1708.3794
v  635.8904 897.9521 1465.2924
v  359.5206 1272.5748 -293.6008
v  496.2456 1258.1255 -272.3430
v  577.0105 894.2055 -667.2388
v  438.6922 945.7916 1411.4620
v  623.1513 936.9404 1352.7853
v  529.1503 1237.3816 985.5693
v  380.5543 1275.4751 1012.4091
v  380.3913 1313.5924 859.5025
v  530.8827 1270.9218 827.6422
v  571.2474 823.3740 -1329.4230
v  456.9161 835.3201 -1356.9092
v  217.0167 867.0490 -1023.2578
v  233.1574 841.7982 -1379.4337
v  168.1311 915.3411 -767.4589
v  356.1052 1303.1488 -218.2948
v  489.0918 1286.6022 -209.2721
v  376.5333 1328.1355 -102.0434
v  506.9363 1302.9949 -97.9567
v  384.5866 1346.6047 271.2809
v  523.7798 1306.9436 279.2782
v  244.0836 814.0932 -1621.4463
v  628.4043 817.0676 1936.1743
v  -607.1831 660.3229 1977.5125
v  -620.4166 723.7031 1976.8466
v  -0.0136 670.5005 1994.4675
v  -0.0136 722.6216 2010.4554
v  -591.0057 514.6608 1956.9745
v  -0.0136 548.1278 1991.4468
v  -575.8857 359.0525 1893.3497
v  -0.0136 360.4442 1922.7445
v  607.1559 660.3229 1977.5125
v  620.3894 723.7031 1976.8466
v  590.9786 514.6608 1956.9745
v  575.8585 359.0525 1893.3497
v  -0.0136 273.6014 -1672.1179
v  -527.5491 276.9508 -1674.4814
v  -540.8162 280.9349 1435.2582
v  -543.5242 197.3438 740.8747
v  -0.0136 197.0955 758.4119
v  -0.0136 296.9774 1527.1759
v  -543.5242 369.1835 1417.3956
v  -543.5242 346.4927 746.2302
v  -543.5242 477.6181 1349.1354
v  -543.5242 442.9384 781.6392
v  -543.5242 571.5645 1209.2959
v  -543.5242 563.4196 897.7578
v  -543.5242 595.9100 1026.6400
v  -527.5491 320.1895 -971.2009
v  -527.5491 343.1049 -1666.2526
v  -527.5430 183.0321 -963.8539
v  -527.5491 460.3926 -1037.9971
v  -527.5491 421.3601 -1640.4648
v  -527.5491 557.6328 -1143.1434
v  -527.5491 502.3226 -1587.8203
v  -527.5491 601.9223 -1296.7321
v  -527.5491 581.4995 -1460.2543
v  -0.0136 182.3765 -942.9443
v  527.5219 276.9508 -1674.4814
v  540.7890 280.9349 1435.2582
v  543.4969 197.3438 740.8747
v  543.4969 346.4927 746.2302
v  543.4969 369.1835 1417.3956
v  543.4969 442.9384 781.6392
v  543.4969 477.6181 1349.1354
v  543.4969 563.4196 897.7578
v  543.4969 571.5645 1209.2959
v  543.4969 595.9100 1026.6400
v  527.5219 343.1049 -1666.2526
v  527.5219 320.1895 -971.2009
v  527.5159 183.0321 -963.8539
v  527.5219 421.3601 -1640.4648
v  527.5219 460.3926 -1037.9971
v  527.5219 502.3226 -1587.8203
v  527.5219 557.6328 -1143.1434
v  527.5219 581.4995 -1460.2543
v  527.5219 601.9223 -1296.7321
v  -437.5844 368.9580 -1943.7072
v  -650.2248 365.5496 -1923.3430
v  -646.1397 401.4032 -1870.7251
v  -431.7100 405.2353 -1889.9420
v  -392.2817 368.7032 -1938.8511
v  -362.8297 368.7437 -1913.5801
v  -354.2219 371.0782 -1890.9867
v  -702.2645 367.8695 -1897.2614
v  -679.9720 401.3668 -1855.0308
v  -729.8832 368.8263 -1844.3920
v  -694.2363 401.0886 -1828.1649
v  -742.0324 367.2254 -1744.0625
v  -712.4965 394.2773 -1736.0989
v  -728.6773 374.0268 -1698.0054
v  -406.5968 329.9013 -1891.2166
v  -445.1723 330.5094 -1887.9041
v  -438.9598 333.2324 -1925.9808
v  -399.9143 331.5789 -1920.0347
v  -639.4295 329.6183 -1870.0425
v  -647.2321 333.2345 -1903.8943
v  -381.4532 332.4611 -1905.8445
v  -375.4583 332.5291 -1891.1938
v  -693.1650 333.6307 -1884.7552
v  -721.7838 336.6324 -1840.9552
v  -680.4727 329.6485 -1854.5277
v  -695.4401 331.1460 -1819.6429
v  -728.6878 348.5603 -1705.2478
v  -733.8083 340.1984 -1741.4307
v  -713.9454 337.2666 -1736.8279
v  437.5573 368.9580 -1943.7072
v  431.6827 405.2353 -1889.9420
v  646.1125 401.4032 -1870.7251
v  650.1976 365.5496 -1923.3430
v  392.2545 368.7032 -1938.8511
v  362.8025 368.7437 -1913.5801
v  354.1947 371.0782 -1890.9867
v  702.2373 367.8695 -1897.2614
v  679.9448 401.3668 -1855.0308
v  694.2091 401.0886 -1828.1649
v  729.8560 368.8263 -1844.3920
v  712.4693 394.2773 -1736.0989
v  742.0052 367.2254 -1744.0625
v  728.6501 374.0268 -1698.0054
v  438.9326 333.2324 -1925.9808
v  445.1451 330.5094 -1887.9041
v  406.5696 329.9013 -1891.2166
v  399.8872 331.5789 -1920.0347
v  647.2048 333.2345 -1903.8943
v  639.4023 329.6183 -1870.0425
v  381.4260 332.4611 -1905.8445
v  375.4312 332.5291 -1891.1938
v  693.1378 333.6307 -1884.7552
v  721.7566 336.6324 -1840.9552
v  680.4455 329.6485 -1854.5277
v  695.4128 331.1460 -1819.6429
v  728.6606 348.5603 -1705.2478
v  733.7811 340.1984 -1741.4307
v  713.9182 337.2666 -1736.8279
v  -437.5844 368.9581 -1581.7510
v  -650.2248 365.5497 -1561.3868
v  -646.1397 401.4032 -1508.7688
v  -431.7100 405.2354 -1527.9858
v  -392.2817 368.7033 -1576.8948
v  -362.8297 368.7437 -1551.6239
v  -354.2219 371.0783 -1529.0304
v  -702.2645 367.8695 -1535.3052
v  -679.9720 401.3669 -1493.0745
v  -729.8832 368.8263 -1482.4357
v  -694.2363 401.0887 -1466.2086
v  -742.0324 367.2254 -1382.1063
v  -712.4965 394.2774 -1374.1427
v  -728.6773 374.0268 -1336.0491
v  -406.5968 329.9013 -1529.2603
v  -445.1723 330.5095 -1525.9478
v  -438.9598 333.2325 -1564.0247
v  -399.9143 331.5790 -1558.0784
v  -639.4295 329.6183 -1508.0862
v  -647.2321 333.2346 -1541.9380
v  -381.4532 332.4612 -1543.8882
v  -375.4583 332.5291 -1529.2375
v  -693.1650 333.6308 -1522.7991
v  -721.7838 336.6325 -1478.9989
v  -680.4727 329.6485 -1492.5714
v  -695.4401 331.1461 -1457.6868
v  -728.6878 348.5604 -1343.2915
v  -733.8083 340.1985 -1379.4745
v  -713.9454 337.2667 -1374.8717
v  437.5573 368.9581 -1581.7510
v  431.6827 405.2354 -1527.9858
v  646.1125 401.4032 -1508.7688
v  650.1976 365.5497 -1561.3868
v  392.2545 368.7033 -1576.8948
v  362.8025 368.7437 -1551.6239
v  354.1947 371.0783 -1529.0304
v  702.2373 367.8695 -1535.3052
v  679.9448 401.3669 -1493.0745
v  694.2091 401.0887 -1466.2086
v  729.8560 368.8263 -1482.4357
v  712.4693 394.2774 -1374.1427
v  742.0052 367.2254 -1382.1063
v  728.6501 374.0268 -1336.0491
v  438.9326 333.2325 -1564.0247
v  445.1451 330.5095 -1525.9478
v  406.5696 329.9013 -1529.2603
v  399.8872 331.5790 -1558.0784
v  647.2048 333.2346 -1541.9380
v  639.4023 329.6183 -1508.0862
v  381.4260 332.4612 -1543.8882
v  375.4312 332.5291 -1529.2375
v  693.1378 333.6308 -1522.7991
v  721.7566 336.6325 -1478.9989
v  680.4455 329.6485 -1492.5714
v  695.4128 331.1461 -1457.6868
v  728.6606 348.5604 -1343.2915
v  733.7811 340.1985 -1379.4745
v  713.9182 337.2667 -1374.8717
v  -473.4621 470.7339 2024.0919
v  -467.5876 507.0112 1970.3268
v  -682.0174 503.1790 1951.1097
v  -686.1025 467.3255 2003.7278
v  -428.1594 470.4790 2019.2358
v  -398.7074 470.5195 1993.9648
v  -390.0995 472.8541 1971.3715
v  -738.1422 469.6453 1977.6461
v  -715.8497 503.1426 1935.4154
v  -730.1140 502.8644 1908.5497
v  -765.7609 470.6021 1924.7767
v  -748.3742 496.0531 1816.4836
v  -777.9101 469.0011 1824.4473
v  -764.5549 475.8026 1778.3900
v  -474.8375 435.0083 2006.3656
v  -481.0500 432.2853 1968.2888
v  -442.4745 431.6772 1971.6013
v  -435.7921 433.3548 2000.4193
v  -683.1097 435.0103 1984.2791
v  -675.3072 431.3941 1950.4271
v  -417.3309 434.2370 1986.2291
v  -411.3360 434.3049 1971.5785
v  -729.0427 435.4066 1965.1400
v  -757.6615 438.4082 1921.3400
v  -716.3504 431.4243 1934.9124
v  -731.3177 432.9218 1900.0277
v  -764.5655 450.3361 1785.6326
v  -769.6860 441.9742 1821.8154
v  -749.8231 439.0424 1817.2126
v  473.4350 470.7339 2024.0919
v  686.0753 467.3255 2003.7278
v  681.9902 503.1790 1951.1097
v  467.5605 507.0112 1970.3268
v  428.1323 470.4790 2019.2358
v  398.6803 470.5195 1993.9648
v  390.0724 472.8541 1971.3715
v  738.1151 469.6453 1977.6461
v  715.8226 503.1426 1935.4154
v  765.7338 470.6021 1924.7767
v  730.0869 502.8644 1908.5497
v  777.8829 469.0011 1824.4473
v  748.3471 496.0531 1816.4836
v  764.5278 475.8026 1778.3900
v  442.4474 431.6772 1971.6013
v  481.0229 432.2853 1968.2888
v  474.8104 435.0083 2006.3656
v  435.7649 433.3548 2000.4193
v  675.2801 431.3941 1950.4271
v  683.0826 435.0103 1984.2791
v  417.3037 434.2370 1986.2291
v  411.3089 434.3049 1971.5785
v  729.0156 435.4066 1965.1400
v  757.6344 438.4082 1921.3400
v  716.3233 431.4243 1934.9124
v  731.2906 432.9218 1900.0277
v  764.5384 450.3361 1785.6326
v  769.6589 441.9742 1821.8154
v  749.7960 439.0424 1817.2126
v  187.3277 421.2252 -1916.6044
v  -184.1508 421.2252 -1916.6046
v  -184.1508 530.5870 -1945.9080
v  187.3277 530.5870 -1945.9078
v  -184.1508 563.7310 1997.5205
v  187.3277 563.7310 1997.5205
v  187.3277 676.9506 1997.5205
v  -184.1508 676.9506 1997.5205
# 707 vertices

vn -0.7170 0.6945 -0.0595
vn -0.9330 0.3595 -0.0140
vn -0.9998 0.0077 -0.0164
vn -0.7333 0.6797 -0.0169
vn -0.9998 0.0100 -0.0172
vn -0.9993 0.0371 -0.0090
vn -0.8548 0.5120 -0.0848
vn -0.9570 0.1999 0.2103
vn -0.6194 0.7811 -0.0791
vn -0.9981 0.0496 -0.0356
vn -0.9978 0.0416 -0.0513
vn -0.9212 0.2009 -0.3331
vn -0.9538 0.2303 -0.1931
vn -0.6991 0.7009 -0.1414
vn -0.9769 -0.1813 -0.1134
vn -0.9246 0.0251 -0.3801
vn -0.7848 0.0375 -0.6187
vn -0.6961 -0.1754 -0.6962
vn -0.5225 0.5239 -0.6727
vn -0.9418 -0.1697 -0.2902
vn -0.9454 -0.2771 -0.1718
vn -0.5548 -0.8239 -0.1159
vn -0.5886 -0.6482 0.4831
vn -0.6537 -0.5026 -0.5658
vn -0.5295 -0.8481 -0.0168
vn -0.5313 -0.8471 -0.0074
vn -0.9709 -0.2396 -0.0047
vn -0.9533 -0.3000 -0.0350
vn -0.8995 0.4368 -0.0100
vn -0.9140 0.4050 -0.0251
vn -0.8975 0.4405 -0.0229
vn -0.8920 0.4519 -0.0119
vn -0.7031 0.6341 -0.3217
vn -0.6870 0.6411 -0.3421
vn -0.7444 0.6559 -0.1255
vn -0.7919 0.6094 -0.0389
vn -0.8129 0.5823 0.0136
vn -0.8807 0.4729 -0.0272
vn -0.8299 0.5535 0.0693
vn -0.6684 0.7093 0.2240
vn -0.8332 0.5530 0.0043
vn -0.7883 0.6080 0.0947
vn -0.9549 0.0645 0.2899
vn -0.9307 -0.2762 0.2398
vn -0.4045 -0.6953 -0.5941
vn -0.9988 0.0481 -0.0034
vn -0.9255 -0.1976 -0.3232
vn -0.4739 -0.6574 0.5858
vn -0.9994 0.0326 -0.0063
vn -0.9997 0.0232 -0.0075
vn -0.9998 0.0152 -0.0095
vn -0.9477 0.3168 -0.0391
vn -0.9462 0.2953 0.1326
vn -0.9983 0.0565 0.0148
vn -0.9439 0.0453 -0.3270
vn -0.9210 0.2877 -0.2625
vn -0.9575 0.1528 0.2448
vn -0.9919 -0.1149 0.0545
vn -0.9983 0.0327 0.0475
vn -0.8015 0.5593 0.2115
vn -0.7657 0.6367 0.0912
vn -0.2757 -0.8113 0.5156
vn -0.5811 -0.4166 0.6991
vn -0.9793 -0.1514 0.1347
vn -0.5992 -0.7638 0.2400
vn -0.6622 0.1358 0.7370
vn -0.6643 0.5864 0.4634
vn -0.7653 -0.1058 0.6349
vn -0.9767 -0.1457 0.1574
vn -0.4882 -0.8028 -0.3421
vn -0.7775 -0.2343 0.5836
vn -0.8884 -0.3829 0.2534
vn -0.9509 -0.2641 0.1614
vn -0.7791 -0.4728 -0.4117
vn -0.9302 -0.3401 -0.1379
vn -0.9731 -0.2292 -0.0239
vn -0.9766 -0.2133 -0.0270
vn -0.9948 -0.0438 0.0915
vn -0.8440 -0.3609 0.3968
vn -0.9120 -0.3616 0.1939
vn -0.8630 -0.4514 -0.2268
vn -0.9374 -0.3355 -0.0932
vn -0.9772 -0.2063 -0.0509
vn -0.9499 -0.3126 0.0012
vn -0.9863 -0.1606 0.0372
vn -0.9660 -0.2585 -0.0055
vn 0.7170 0.6945 -0.0595
vn 0.7333 0.6797 -0.0169
vn 0.9998 0.0077 -0.0164
vn 0.9330 0.3595 -0.0140
vn 0.9998 0.0100 -0.0172
vn 0.8548 0.5120 -0.0848
vn 0.9993 0.0371 -0.0090
vn 0.9570 0.1999 0.2103
vn 0.9981 0.0496 -0.0356
vn 0.6194 0.7811 -0.0791
vn 0.9538 0.2303 -0.1931
vn 0.9212 0.2009 -0.3331
vn 0.9978 0.0416 -0.0513
vn 0.6991 0.7009 -0.1414
vn 0.9246 0.0251 -0.3801
vn 0.9769 -0.1813 -0.1134
vn 0.6961 -0.1754 -0.6962
vn 0.7848 0.0375 -0.6187
vn 0.5225 0.5239 -0.6727
vn 0.9418 -0.1697 -0.2902
vn 0.5886 -0.6482 0.4831
vn 0.5548 -0.8239 -0.1159
vn 0.9454 -0.2771 -0.1718
vn 0.6537 -0.5026 -0.5658
vn 0.5295 -0.8481 -0.0168
vn 0.9533 -0.3000 -0.0350
vn 0.9709 -0.2396 -0.0047
vn 0.5313 -0.8471 -0.0074
vn 0.8975 0.4405 -0.0229
vn 0.9140 0.4050 -0.0251
vn 0.8995 0.4368 -0.0100
vn 0.8920 0.4519 -0.0119
vn 0.7031 0.6341 -0.3217
vn 0.6870 0.6411 -0.3421
vn 0.7444 0.6559 -0.1255
vn 0.7919 0.6094 -0.0389
vn 0.8129 0.5823 0.0136
vn 0.8807 0.4729 -0.0272
vn 0.8332 0.5530 0.0043
vn 0.6684 0.7093 0.2240
vn 0.8299 0.5535 0.0693
vn 0.7883 0.6080 0.0947
vn 0.9549 0.0645 0.2899
vn 0.9307 -0.2762 0.2398
vn 0.4045 -0.6953 -0.5941
vn 0.9988 0.0481 -0.0034
vn 0.9255 -0.1976 -0.3232
vn 0.4739 -0.6574 0.5858
vn 0.9994 0.0326 -0.0063
vn 0.9997 0.0232 -0.0075
vn 0.9998 0.0152 -0.0095
vn 0.9983 0.0565 0.0148
vn 0.9462 0.2953 0.1326
vn 0.9477 0.3168 -0.0391
vn 0.9439 0.0453 -0.3270
vn 0.9210 0.2877 -0.2625
vn 0.9575 0.1528 0.2448
vn 0.9983 0.0327 0.0475
vn 0.9919 -0.1149 0.0545
vn 0.8015 0.5593 0.2115
vn 0.7657 0.6367 0.0912
vn 0.2757 -0.8113 0.5156
vn 0.5992 -0.7638 0.2400
vn 0.9793 -0.1514 0.1347
vn 0.5811 -0.4166 0.6991
vn 0.6643 0.5864 0.4634
vn 0.6622 0.1358 0.7370
vn 0.7653 -0.1058 0.6349
vn 0.4882 -0.8028 -0.3421
vn 0.9767 -0.1457 0.1574
vn 0.7775 -0.2343 0.5836
vn 0.9509 -0.2641 0.1614
vn 0.8884 -0.3829 0.2534
vn 0.7791 -0.4728 -0.4117
vn 0.9302 -0.3401 -0.1379
vn 0.9731 -0.2292 -0.0239
vn 0.9766 -0.2133 -0.0270
vn 0.9948 -0.0438 0.0915
vn 0.9120 -0.3616 0.1939
vn 0.8440 -0.3609 0.3968
vn 0.8630 -0.4514 -0.2268
vn 0.9374 -0.3355 -0.0932
vn 0.9772 -0.2063 -0.0509
vn 0.9499 -0.3126 0.0012
vn 0.9863 -0.1606 0.0372
vn 0.9660 -0.2585 -0.0055
vn -0.6732 -0.7022 -0.2318
vn -0.6730 -0.7397 0.0000
vn -1.0000 -0.0000 -0.0000
vn -0.6732 -0.7022 0.2318
vn -0.6742 -0.5961 0.4360
vn -0.6742 -0.4360 0.5961
vn -0.6732 -0.2318 0.7022
vn -0.6730 -0.0000 0.7397
vn -0.6732 0.2318 0.7022
vn -0.6742 0.4360 0.5961
vn -0.6741 0.5962 0.4360
vn -0.6732 0.7021 0.2318
vn -0.6729 0.7398 0.0000
vn -0.6732 0.7022 -0.2318
vn -0.6742 0.5961 -0.4360
vn -0.6742 0.4360 -0.5961
vn -0.6732 0.2318 -0.7022
vn -0.6729 -0.0000 -0.7397
vn -0.6732 -0.2318 -0.7022
vn -0.6741 -0.4360 -0.5962
vn -0.6742 -0.5961 -0.4360
vn 1.0000 0.0000 0.0000
vn 0.6729 -0.7398 -0.0000
vn 0.6732 -0.7021 -0.2318
vn 0.6732 -0.7022 0.2318
vn 0.6741 -0.5962 0.4360
vn 0.6742 -0.4360 0.5961
vn 0.6732 -0.2318 0.7022
vn 0.6729 0.0000 0.7397
vn 0.6732 0.2318 0.7022
vn 0.6742 0.4360 0.5961
vn 0.6741 0.5962 0.4360
vn 0.6733 0.7021 0.2318
vn 0.6730 0.7397 -0.0000
vn 0.6732 0.7022 -0.2318
vn 0.6742 0.5961 -0.4360
vn 0.6742 0.4360 -0.5961
vn 0.6732 0.2318 -0.7022
vn 0.6730 -0.0000 -0.7397
vn 0.6732 -0.2318 -0.7022
vn 0.6742 -0.4360 -0.5961
vn 0.6742 -0.5961 -0.4360
vn 0.6732 -0.7022 -0.2318
vn 1.0000 -0.0000 -0.0000
vn 0.6729 -0.7397 -0.0000
vn 0.6742 -0.5961 0.4360
vn 0.6729 -0.0000 0.7397
vn 0.6742 0.5961 0.4360
vn 0.6732 0.7022 0.2318
vn 0.6729 0.7397 -0.0000
vn 0.6741 0.4360 -0.5962
vn 0.6729 -0.0000 -0.7397
vn -1.0000 0.0000 0.0000
vn -0.6729 -0.7397 0.0000
vn -0.6741 0.4360 0.5962
vn -0.6742 0.5961 0.4360
vn -0.6732 0.7022 0.2318
vn -0.6729 0.7397 0.0000
vn -0.6732 0.2318 -0.7021
vn -0.6729 0.0000 -0.7398
vn -0.6729 -0.7397 -0.0000
vn -0.6742 -0.4360 -0.5961
vn 0.6730 -0.0000 0.7397
vn 0.6741 0.4360 0.5962
vn 0.6742 0.5962 0.4360
vn 0.6732 0.2318 0.7021
vn 0.6729 0.0000 -0.7397
vn -0.6732 -0.7021 -0.2318
vn -0.6729 -0.7398 -0.0000
vn -0.6729 -0.0000 0.7397
vn -0.6741 0.5962 -0.4360
vn -0.6730 -0.0000 -0.7397
vn -0.2611 -0.5812 -0.7708
vn -0.1476 -0.5643 -0.8123
vn -0.1296 -0.9287 -0.3473
vn -0.4580 -0.8330 -0.3103
vn -0.1102 -0.5424 -0.8328
vn -0.0985 -0.9277 -0.3602
vn -0.0883 -0.5517 -0.8294
vn -0.0467 -0.9657 -0.2556
vn -0.0523 -0.5202 -0.8524
vn -0.0320 -0.9501 -0.3104
vn -0.2875 -0.3067 -0.9073
vn -0.1200 0.5856 -0.8017
vn -0.1226 -0.2509 -0.9602
vn 0.1722 0.5732 -0.8011
vn -0.0405 -0.2714 -0.9616
vn 0.1348 0.3718 -0.9185
vn -0.0568 -0.1764 -0.9827
vn -0.0288 -0.1445 -0.9891
vn 0.0193 0.4435 -0.8961
vn -0.0000 -0.5474 -0.8369
vn 0.0000 -0.9603 -0.2789
vn 0.0000 0.4146 -0.9100
vn 0.0000 -0.1621 -0.9868
vn 0.2611 -0.5812 -0.7708
vn 0.4580 -0.8330 -0.3103
vn 0.1296 -0.9287 -0.3473
vn 0.1476 -0.5643 -0.8123
vn 0.0985 -0.9277 -0.3602
vn 0.1102 -0.5424 -0.8328
vn 0.0467 -0.9657 -0.2556
vn 0.0883 -0.5517 -0.8294
vn 0.0320 -0.9501 -0.3104
vn 0.0523 -0.5202 -0.8524
vn 0.2875 -0.3067 -0.9073
vn 0.1226 -0.2509 -0.9602
vn 0.1200 0.5856 -0.8017
vn 0.0405 -0.2714 -0.9616
vn -0.1722 0.5732 -0.8011
vn 0.0568 -0.1764 -0.9827
vn -0.1348 0.3718 -0.9185
vn 0.0288 -0.1445 -0.9891
vn -0.0193 0.4435 -0.8961
vn -0.0857 0.9891 -0.1200
vn -0.1949 0.9790 -0.0604
vn -0.3574 0.9221 -0.1481
vn -0.1753 0.8955 -0.4091
vn 0.0368 0.9868 -0.1575
vn 0.0873 0.9253 -0.3689
vn 0.1004 0.9580 -0.2687
vn 0.0091 0.9903 -0.1388
vn -0.1153 0.9691 -0.2180
vn -0.1449 0.9823 -0.1185
vn -0.0581 0.9014 -0.4292
vn -0.0698 0.9707 0.2301
vn -0.2974 0.9336 0.1998
vn -0.2191 0.9602 0.1734
vn -0.0340 0.9807 0.1926
vn -0.1148 0.8567 -0.5029
vn -0.3371 0.8274 -0.4493
vn -0.2486 0.8278 -0.5029
vn -0.1205 0.8745 0.4698
vn -0.1709 0.8845 0.4342
vn -0.4681 0.8174 0.3357
vn -0.3396 0.8610 0.3787
vn -0.1710 0.9740 0.1489
vn -0.4453 0.8875 0.1186
vn -0.0765 0.9936 -0.0832
vn -0.1676 0.9831 -0.0736
vn -0.0577 0.9911 -0.1201
vn -0.0473 0.9948 -0.0900
vn -0.0460 0.9131 -0.4051
vn -0.2508 0.9273 -0.2779
vn -0.0844 0.9513 -0.2964
vn -0.3426 0.9339 -0.1028
vn -0.1171 0.9833 -0.1395
vn -0.1612 0.9869 0.0006
vn -0.4231 0.9059 0.0153
vn -0.0613 0.9837 -0.1690
vn -0.1545 0.7723 0.6162
vn 0.0000 0.9553 -0.2957
vn 0.0000 0.8695 -0.4939
vn -0.0000 0.9878 -0.1557
vn 0.0000 0.9695 0.2453
vn 0.0000 0.9788 0.2049
vn 0.0000 0.8715 0.4903
vn 0.0000 0.9849 0.1731
vn 0.0000 0.8839 0.4676
vn 0.0000 1.0000 0.0027
vn -0.0000 0.9221 -0.3869
vn -0.0000 0.9952 -0.0981
vn -0.0000 0.9960 -0.0898
vn 0.0000 0.9831 -0.1829
vn 0.0000 0.8784 -0.4778
vn 0.0000 0.7123 0.7018
vn 0.0857 0.9891 -0.1200
vn 0.1753 0.8955 -0.4091
vn 0.3574 0.9221 -0.1481
vn 0.1949 0.9790 -0.0604
vn -0.0368 0.9868 -0.1575
vn -0.0091 0.9903 -0.1388
vn -0.1004 0.9580 -0.2687
vn -0.0873 0.9253 -0.3689
vn 0.1153 0.9691 -0.2180
vn 0.1449 0.9823 -0.1185
vn 0.0581 0.9014 -0.4292
vn 0.0698 0.9707 0.2301
vn 0.0340 0.9807 0.1926
vn 0.2191 0.9602 0.1734
vn 0.2974 0.9336 0.1998
vn 0.1148 0.8567 -0.5029
vn 0.2486 0.8278 -0.5029
vn 0.3371 0.8274 -0.4493
vn 0.1205 0.8745 0.4698
vn 0.3396 0.8610 0.3787
vn 0.4681 0.8174 0.3357
vn 0.1709 0.8845 0.4342
vn 0.1710 0.9740 0.1489
vn 0.4453 0.8875 0.1186
vn 0.1676 0.9831 -0.0736
vn 0.0765 0.9936 -0.0832
vn 0.0577 0.9911 -0.1201
vn 0.0473 0.9948 -0.0900
vn 0.0460 0.9131 -0.4051
vn 0.0844 0.9513 -0.2964
vn 0.2508 0.9273 -0.2779
vn 0.1171 0.9833 -0.1395
vn 0.3426 0.9339 -0.1028
vn 0.1612 0.9869 0.0006
vn 0.4231 0.9059 0.0153
vn 0.0613 0.9837 -0.1690
vn 0.1545 0.7723 0.6162
vn -0.1067 -0.0808 0.9910
vn -0.0978 0.1989 0.9751
vn 0.0000 -0.1623 0.9867
vn 0.0000 0.0003 1.0000
vn -0.1473 -0.2702 0.9515
vn -0.0000 -0.1800 0.9837
vn -0.0190 -0.7743 0.6325
vn 0.0000 -0.7633 0.6461
vn 0.1067 -0.0808 0.9910
vn 0.0978 0.1989 0.9751
vn 0.1473 -0.2702 0.9515
vn 0.0190 -0.7743 0.6325
vn -0.0000 -0.9991 0.0416
vn -0.3064 -0.8900 0.3378
vn -0.2970 -0.9409 -0.1629
vn -0.2646 -0.9006 0.3447
vn -0.0000 -0.9975 0.0701
vn -0.0000 -0.9894 0.1453
vn -0.6629 -0.2880 -0.6911
vn -0.6734 -0.1424 0.7255
vn -0.6633 -0.5212 -0.5370
vn -0.6635 -0.3970 0.6341
vn -0.6593 -0.7031 -0.2663
vn -0.6502 -0.6573 0.3811
vn -0.6670 -0.7438 0.0426
vn -0.6659 -0.1839 -0.7230
vn -0.6859 -0.1595 0.7100
vn -0.2510 -0.9079 -0.3357
vn -0.6670 -0.4417 -0.6000
vn -0.6792 -0.3175 0.6617
vn -0.6587 -0.6554 -0.3696
vn -0.6612 -0.5360 0.5248
vn -0.6645 -0.7450 -0.0584
vn -0.6620 -0.7067 0.2499
vn 0.0000 -0.9984 -0.0562
vn 0.3064 -0.8900 0.3378
vn 0.2970 -0.9409 -0.1629
vn 0.2646 -0.9006 0.3447
vn 0.6734 -0.1424 0.7255
vn 0.6629 -0.2880 -0.6911
vn 0.6635 -0.3970 0.6341
vn 0.6633 -0.5212 -0.5370
vn 0.6502 -0.6573 0.3811
vn 0.6593 -0.7031 -0.2663
vn 0.6670 -0.7438 0.0426
vn 0.6859 -0.1595 0.7100
vn 0.6659 -0.1839 -0.7230
vn 0.2510 -0.9079 -0.3357
vn 0.6792 -0.3175 0.6617
vn 0.6670 -0.4417 -0.6000
vn 0.6612 -0.5360 0.5248
vn 0.6587 -0.6554 -0.3696
vn 0.6620 -0.7067 0.2499
vn 0.6645 -0.7450 -0.0584
vn 0.0029 0.2497 -0.9683
vn -0.2605 0.1850 -0.9476
vn -0.1648 0.8210 -0.5466
vn 0.0746 0.8585 -0.5074
vn 0.3961 0.2335 -0.8880
vn 0.7990 0.2415 -0.5507
vn 0.8811 0.2988 -0.3666
vn -0.6620 0.2389 -0.7104
vn -0.4384 0.8023 -0.4050
vn -0.9123 0.2899 -0.2892
vn -0.6133 0.7688 -0.1813
vn -0.9718 0.2301 0.0515
vn -0.6748 0.7380 -0.0040
vn -0.9283 0.2957 0.2255
vn 0.0226 -0.9983 -0.0529
vn -0.0105 -0.9973 -0.0730
vn -0.0045 -0.8089 -0.5880
vn 0.2245 -0.8151 -0.5341
vn -0.0214 -0.9946 -0.1013
vn -0.1448 -0.8265 -0.5440
vn 0.4757 -0.8027 -0.3597
vn 0.5999 -0.7626 -0.2419
vn -0.4293 -0.7623 -0.4844
vn -0.6828 -0.6968 -0.2196
vn -0.1372 -0.9879 -0.0725
vn -0.2042 -0.9789 0.0004
vn -0.9423 -0.2715 0.1961
vn -0.6703 -0.7362 0.0931
vn -0.1752 -0.9753 0.1348
vn -0.0029 0.2497 -0.9683
vn -0.0746 0.8585 -0.5074
vn 0.1648 0.8210 -0.5466
vn 0.2605 0.1850 -0.9476
vn -0.3961 0.2335 -0.8880
vn -0.7990 0.2415 -0.5507
vn -0.8811 0.2988 -0.3666
vn 0.6620 0.2389 -0.7104
vn 0.4384 0.8023 -0.4050
vn 0.6133 0.7688 -0.1813
vn 0.9123 0.2899 -0.2892
vn 0.6748 0.7380 -0.0040
vn 0.9718 0.2301 0.0515
vn 0.9283 0.2957 0.2255
vn 0.0045 -0.8089 -0.5880
vn 0.0105 -0.9973 -0.0730
vn -0.0226 -0.9983 -0.0529
vn -0.2245 -0.8151 -0.5341
vn 0.1448 -0.8265 -0.5440
vn 0.0214 -0.9946 -0.1013
vn -0.4757 -0.8027 -0.3597
vn -0.5999 -0.7626 -0.2419
vn 0.4293 -0.7623 -0.4844
vn 0.6828 -0.6968 -0.2196
vn 0.1372 -0.9879 -0.0725
vn 0.2042 -0.9789 0.0004
vn 0.9423 -0.2715 0.1961
vn 0.6703 -0.7362 0.0931
vn 0.1752 -0.9753 0.1348
vn -0.4384 0.8024 -0.4050
vn 0.4384 0.8024 -0.4050
vn 0.0029 0.2497 0.9683
vn 0.0746 0.8585 0.5074
vn -0.1648 0.8210 0.5466
vn -0.2605 0.1850 0.9476
vn 0.3961 0.2335 0.8880
vn 0.7990 0.2415 0.5507
vn 0.8811 0.2988 0.3666
vn -0.6620 0.2389 0.7104
vn -0.4384 0.8024 0.4050
vn -0.6133 0.7688 0.1813
vn -0.9123 0.2899 0.2892
vn -0.6748 0.7380 0.0040
vn -0.9718 0.2301 -0.0515
vn -0.9283 0.2957 -0.2255
vn -0.0045 -0.8089 0.5880
vn -0.0105 -0.9973 0.0730
vn 0.0226 -0.9983 0.0529
vn 0.2245 -0.8151 0.5341
vn -0.1448 -0.8265 0.5440
vn -0.0214 -0.9946 0.1013
vn 0.4757 -0.8027 0.3597
vn 0.5999 -0.7626 0.2420
vn -0.4293 -0.7623 0.4844
vn -0.6828 -0.6968 0.2196
vn -0.1372 -0.9879 0.0725
vn -0.2042 -0.9789 -0.0003
vn -0.9423 -0.2715 -0.1961
vn -0.6703 -0.7362 -0.0931
vn -0.1752 -0.9753 -0.1348
vn -0.0029 0.2497 0.9683
vn 0.2605 0.1850 0.9476
vn 0.1648 0.8210 0.5466
vn -0.0746 0.8585 0.5074
vn -0.3961 0.2335 0.8880
vn -0.7990 0.2415 0.5507
vn -0.8811 0.2988 0.3666
vn 0.6620 0.2389 0.7104
vn 0.4384 0.8024 0.4050
vn 0.9123 0.2899 0.2892
vn 0.6133 0.7688 0.1813
vn 0.9718 0.2301 -0.0515
vn 0.6748 0.7380 0.0040
vn 0.9283 0.2957 -0.2255
vn -0.0226 -0.9983 0.0529
vn 0.0105 -0.9973 0.0730
vn 0.0045 -0.8089 0.5880
vn -0.2245 -0.8151 0.5341
vn 0.0214 -0.9946 0.1013
vn 0.1448 -0.8265 0.5440
vn -0.4757 -0.8027 0.3597
vn -0.5999 -0.7626 0.2419
vn 0.4293 -0.7623 0.4844
vn 0.6828 -0.6968 0.2196
vn 0.1372 -0.9879 0.0725
vn 0.2042 -0.9789 -0.0003
vn 0.9423 -0.2715 -0.1961
vn 0.6703 -0.7362 -0.0931
vn 0.1752 -0.9753 -0.1348
vn 0.0000 -0.2588 -0.9659
vn 0.0000 0.0000 1.0000
# 549 vertex normals

vt 0.1677 0.8553 0.0000
vt 0.1644 0.8181 0.0000
vt 0.2106 0.8186 0.0000
vt 0.2475 0.8576 0.0000
vt 0.2619 0.8183 0.0000
vt 0.3263 0.8192 0.0000
vt 0.3245 0.8577 0.0000
vt 0.2092 0.8030 0.0000
vt 0.1133 0.8536 0.0000
vt 0.1164 0.8182 0.0000
vt 0.0598 0.8150 0.0000
vt 0.0921 0.7870 0.0000
vt 0.1208 0.8081 0.0000
vt 0.0552 0.8449 0.0000
vt 0.0476 0.7666 0.0000
vt 0.0796 0.7652 0.0000
vt 0.0216 0.8141 0.0000
vt 0.0222 0.7879 0.0000
vt 0.0194 0.8361 0.0000
vt 0.0735 0.7451 0.0000
vt 0.0549 0.7502 0.0000
vt 0.0622 0.7273 0.0000
vt 0.0743 0.7285 0.0000
vt 0.0405 0.7441 0.0000
vt 0.3047 0.7055 0.0000
vt 0.5777 0.7059 0.0000
vt 0.5716 0.7442 0.0000
vt 0.3047 0.7439 0.0000
vt 0.4353 0.8584 0.0000
vt 0.5670 0.8599 0.0000
vt 0.5652 0.8770 0.0000
vt 0.4363 0.8743 0.0000
vt 0.4191 0.9622 0.0000
vt 0.3337 0.8755 0.0000
vt 0.4353 0.9676 0.0000
vt 0.4564 0.9703 0.0000
vt 0.5490 0.9730 0.0000
vt 0.7172 0.8707 0.0000
vt 0.8127 0.8732 0.0000
vt 0.8023 0.8909 0.0000
vt 0.7155 0.8828 0.0000
vt 0.6839 0.9660 0.0000
vt 0.2348 0.7792 0.0000
vt 0.2536 0.7411 0.0000
vt 0.2475 0.7049 0.0000
vt 0.4459 0.8194 0.0000
vt 0.6577 0.7467 0.0000
vt 0.6637 0.7089 0.0000
vt 0.5806 0.8187 0.0000
vt 0.7348 0.8257 0.0000
vt 0.6583 0.8198 0.0000
vt 0.7346 0.8142 0.0000
vt 0.7812 0.8078 0.0000
vt 0.8164 0.8262 0.0000
vt 0.6649 0.7721 0.0000
vt 0.6956 0.8014 0.0000
vt 0.8174 0.7820 0.0000
vt 0.8954 0.7864 0.0000
vt 0.8895 0.8251 0.0000
vt 0.7227 0.9551 0.0000
vt 0.8876 0.8654 0.0000
vt 0.9413 0.7467 0.0000
vt 0.9470 0.7577 0.0000
vt 0.9145 0.7618 0.0000
vt 0.9165 0.7417 0.0000
vt 0.9618 0.8358 0.0000
vt 0.9535 0.8545 0.0000
vt 0.9591 0.8222 0.0000
vt 0.8385 0.7546 0.0000
vt 0.8376 0.7279 0.0000
vt 0.9507 0.7846 0.0000
vt 0.6650 0.7455 0.0000
vt 0.6736 0.7692 0.0000
vt 0.8288 0.7511 0.0000
vt 0.8121 0.7777 0.0000
vt 0.7780 0.8007 0.0000
vt 0.7334 0.8067 0.0000
vt 0.7020 0.7987 0.0000
vt 0.0763 0.7447 0.0000
vt 0.0826 0.7639 0.0000
vt 0.2459 0.7391 0.0000
vt 0.2296 0.7734 0.0000
vt 0.2040 0.7973 0.0000
vt 0.1665 0.8081 0.0000
vt 0.1266 0.8031 0.0000
vt 0.0955 0.7837 0.0000
vt 0.8369 0.0695 0.7179
vt 0.8734 0.0636 0.7179
vt 0.8734 0.1790 0.7179
vt 0.9098 0.0695 0.7179
vt 0.9415 0.0859 0.7179
vt 0.9665 0.1108 0.7179
vt 0.9829 0.1425 0.7179
vt 0.9888 0.1790 0.7179
vt 0.9829 0.2154 0.7179
vt 0.9665 0.2471 0.7179
vt 0.9415 0.2721 0.7179
vt 0.9098 0.2885 0.7179
vt 0.8734 0.2944 0.7179
vt 0.8369 0.2885 0.7179
vt 0.8052 0.2721 0.7179
vt 0.7802 0.2471 0.7179
vt 0.7638 0.2154 0.7179
vt 0.7580 0.1790 0.7179
vt 0.7638 0.1425 0.7179
vt 0.7802 0.1108 0.7179
vt 0.8052 0.0859 0.7179
vt 0.1572 0.7508 -0.2821
vt 0.1572 0.7251 -0.2821
vt 0.1387 0.7264 -0.2821
vt 0.1758 0.7264 -0.2821
vt 0.1919 0.7301 -0.2821
vt 0.2046 0.7356 -0.2821
vt 0.2130 0.7427 -0.2821
vt 0.2160 0.7508 -0.2821
vt 0.2130 0.7590 -0.2821
vt 0.2046 0.7661 -0.2821
vt 0.1919 0.7716 -0.2821
vt 0.1758 0.7753 -0.2821
vt 0.1572 0.7766 -0.2821
vt 0.1387 0.7753 -0.2821
vt 0.1226 0.7716 -0.2821
vt 0.1098 0.7661 -0.2821
vt 0.1015 0.7590 -0.2821
vt 0.0985 0.7508 -0.2821
vt 0.1015 0.7427 -0.2821
vt 0.1098 0.7356 -0.2821
vt 0.1226 0.7301 -0.2821
vt 0.5387 0.3906 -0.3589
vt 0.5387 0.4659 -0.3589
vt 0.5094 0.4659 -0.3589
vt 0.5094 0.3906 -0.3589
vt 0.4802 0.4659 -0.3589
vt 0.4802 0.3906 -0.3589
vt 0.4519 0.4659 -0.3589
vt 0.4519 0.3905 -0.3589
vt 0.4239 0.4659 -0.3589
vt 0.4239 0.3905 -0.3589
vt 0.3956 0.4659 -0.3589
vt 0.3957 0.3905 -0.3589
vt 0.3664 0.4659 -0.3589
vt 0.3664 0.3905 0.3589
vt 0.3371 0.4659 -0.3589
vt 0.3371 0.3905 -0.3589
vt 0.3089 0.4659 -0.3589
vt 0.3089 0.3905 -0.3589
vt 0.2809 0.4659 -0.3589
vt 0.2809 0.3905 -0.3589
vt 0.2526 0.4659 -0.3589
vt 0.2526 0.3905 -0.3589
vt 0.2234 0.4659 -0.3589
vt 0.2234 0.3905 -0.3589
vt 0.1941 0.4659 -0.3589
vt 0.1941 0.3905 -0.3589
vt 0.1658 0.4659 -0.3589
vt 0.1658 0.3905 -0.3589
vt 0.1378 0.4659 -0.3589
vt 0.1378 0.3905 -0.3589
vt 0.1096 0.4659 -0.3589
vt 0.1096 0.3905 -0.3589
vt 0.0803 0.4658 -0.3589
vt 0.0803 0.3905 0.3589
vt 0.0511 0.4658 -0.3589
vt 0.0511 0.3905 -0.3589
vt 0.0228 0.4658 -0.3589
vt 0.0228 0.3905 -0.3589
vt 0.5950 0.3906 -0.3589
vt 0.5950 0.4659 -0.3589
vt 0.5670 0.4659 -0.3589
vt 0.5670 0.3906 -0.3589
vt 0.6325 0.0940 0.0000
vt 0.6051 0.0903 0.0000
vt 0.6096 0.0677 0.0000
vt 0.6370 0.0696 0.0000
vt 0.5672 0.0905 0.0000
vt 0.5795 0.0667 0.0000
vt 0.5457 0.0877 0.0000
vt 0.5488 0.0630 0.0000
vt 0.5051 0.0883 0.0000
vt 0.5023 0.0630 0.0000
vt 0.6459 0.0991 0.0000
vt 0.6441 0.0714 0.0000
vt 0.6667 0.2141 0.0000
vt 0.6551 0.2503 0.0000
vt 0.6455 0.1550 0.0000
vt 0.6611 0.1710 0.0000
vt 0.6069 0.2552 0.0000
vt 0.6109 0.1521 0.0000
vt 0.5648 0.2540 0.0000
vt 0.5683 0.1527 0.0000
vt 0.5468 0.2383 0.0000
vt 0.5413 0.1712 0.0000
vt 0.5170 0.1753 0.0000
vt 0.5168 0.2370 0.0000
vt 0.3778 0.0837 0.0000
vt 0.3778 0.0606 0.0000
vt 0.3778 0.2377 0.0000
vt 0.3778 0.1717 0.0000
vt 0.2539 0.5761 0.0000
vt 0.2549 0.5418 0.0000
vt 0.3062 0.5392 0.0000
vt 0.3161 0.5852 0.0000
vt 0.1064 0.5776 0.0000
vt 0.0540 0.5803 0.0000
vt 0.0547 0.5727 0.0000
vt 0.1079 0.5704 0.0000
vt 0.0237 0.5692 0.0000
vt 0.0270 0.5438 0.0000
vt 0.0609 0.5452 0.0000
vt 0.1120 0.5438 0.0000
vt 0.0241 0.5981 0.0000
vt 0.0235 0.5801 0.0000
vt 0.0495 0.6072 0.0000
vt 0.8700 0.5733 0.0000
vt 0.8525 0.5285 0.0000
vt 0.9119 0.5281 0.0000
vt 0.9180 0.5835 0.0000
vt 0.4229 0.5951 0.0000
vt 0.3316 0.5427 0.0000
vt 0.4281 0.5622 0.0000
vt 0.8393 0.5760 0.0000
vt 0.7419 0.5901 0.0000
vt 0.7353 0.5542 0.0000
vt 0.8250 0.5316 0.0000
vt 0.7045 0.5901 0.0000
vt 0.6967 0.5538 0.0000
vt 0.1632 0.5717 0.0000
vt 0.1699 0.5441 0.0000
vt 0.2447 0.6295 0.0000
vt 0.1577 0.6256 0.0000
vt 0.3072 0.6413 0.0000
vt 0.4435 0.5639 0.0000
vt 0.4413 0.5960 0.0000
vt 0.4707 0.5596 0.0000
vt 0.4697 0.5910 0.0000
vt 0.5609 0.5891 0.0000
vt 0.5628 0.5555 0.0000
vt 0.0986 0.6230 0.0000
vt 0.2589 0.5085 0.0000
vt 0.3360 0.5080 0.0000
vt 0.0306 0.5148 0.0000
vt 0.0665 0.5120 0.0000
vt 0.1246 0.5151 0.0000
vt 0.1791 0.5093 0.0000
vt 0.3452 0.5216 0.0000
vt 0.4308 0.5418 0.0000
vt 0.4469 0.5425 0.0000
vt 0.9656 0.5073 0.0000
vt 0.9675 0.5303 0.0000
vt 0.8996 0.5055 0.0000
vt 0.8247 0.5051 0.0000
vt 0.7346 0.5448 0.0000
vt 0.8143 0.5258 0.0000
vt 0.6958 0.5453 0.0000
vt 0.5608 0.5438 0.0000
vt 0.4681 0.5428 0.0000
vt 0.4337 0.6818 0.0000
vt 0.4179 0.6818 0.0000
vt 0.4638 0.6818 0.0000
vt 0.8789 0.6818 0.0000
vt 0.9191 0.6818 0.0000
vt 0.8468 0.6818 0.0000
vt 0.7153 0.6818 0.0000
vt 0.7491 0.6818 0.0000
vt 0.5640 0.6818 0.0000
vt 0.3048 0.6818 0.0000
vt 0.2380 0.6818 0.0000
vt 0.1519 0.6818 0.0000
vt 0.0948 0.6818 0.0000
vt 0.0470 0.6818 0.0000
vt 0.0224 0.6818 0.0000
vt 0.9778 0.6818 0.0000
vt 0.0860 0.2238 0.0000
vt 0.0806 0.2491 0.0000
vt 0.0355 0.2455 0.0000
vt 0.0324 0.2233 0.0000
vt 0.3327 0.2279 0.0000
vt 0.3327 0.2486 0.0000
vt 0.0774 0.2863 0.0000
vt 0.0386 0.2759 0.0000
vt 0.0926 0.1658 0.0000
vt 0.3327 0.1789 0.0000
vt 0.0375 0.1623 0.0000
vt 0.0491 0.1185 0.0000
vt 0.0987 0.1037 0.0000
vt 0.0609 0.1006 0.0000
vt 0.3326 0.2873 0.0000
vt 0.3327 0.1043 0.0000
vt 0.1736 0.7796 0.0000
vt 0.2030 0.7773 0.0000
vt 0.2042 0.7781 0.0000
vt 0.1523 0.7778 0.0000
vt 0.1510 0.7334 0.0000
vt 0.1507 0.7433 0.0000
vt 0.2042 0.7430 0.0000
vt 0.2041 0.7320 0.0000
vt 0.1405 0.7790 0.0000
vt 0.1472 0.7793 0.0000
vt 0.1546 0.7794 0.0000
vt 0.1622 0.7794 0.0000
vt 0.1507 0.7336 0.0000
vt 0.1507 0.7432 0.0000
vt 0.1507 0.7346 0.0000
vt 0.1507 0.7427 0.0000
vt 0.1507 0.7366 0.0000
vt 0.1507 0.7410 0.0000
vt 0.1507 0.7392 0.0000
vt 0.1523 0.7678 0.0000
vt 0.1523 0.7777 0.0000
vt 0.1523 0.7677 0.0000
vt 0.1523 0.7687 0.0000
vt 0.1523 0.7773 0.0000
vt 0.1523 0.7702 0.0000
vt 0.1523 0.7766 0.0000
vt 0.1523 0.7724 0.0000
vt 0.1523 0.7748 0.0000
vt 0.1476 0.7268 0.0000
vt 0.2042 0.7264 0.0000
vt 0.1388 0.7483 0.0000
vt 0.1419 0.7643 0.0000
vt 0.1430 0.7677 0.0000
vt 0.1378 0.7433 0.0000
vt 0.1350 0.7777 0.0000
vt 0.1328 0.7773 0.0000
vt 0.1340 0.7678 0.0000
vt 0.1302 0.7687 0.0000
vt 0.1282 0.7702 0.0000
vt 0.1277 0.7724 0.0000
vt 0.1284 0.7748 0.0000
vt 0.1305 0.7766 0.0000
vt 0.1372 0.7778 0.0000
vt 0.1388 0.7785 0.0000
vt 0.1384 0.7270 0.0000
vt 0.1353 0.7285 0.0000
vt 0.1344 0.7331 0.0000
vt 0.1302 0.7432 0.0000
vt 0.1278 0.7427 0.0000
vt 0.1302 0.7336 0.0000
vt 0.1278 0.7346 0.0000
vt 0.1258 0.7366 0.0000
vt 0.1256 0.7392 0.0000
vt 0.1261 0.7410 0.0000
vt 0.2042 0.7674 0.0000
vt 0.7035 0.2125 0.0000
vt 0.7162 0.0732 0.0000
vt 0.7490 0.0759 0.0000
vt 0.7370 0.2164 0.0000
vt 0.7065 0.2422 0.0000
vt 0.7223 0.2615 0.0000
vt 0.7364 0.2671 0.0000
vt 0.7325 0.0391 0.0000
vt 0.7588 0.0537 0.0000
vt 0.7655 0.0210 0.0000
vt 0.7756 0.0444 0.0000
vt 0.8281 0.0131 0.0000
vt 0.8331 0.0324 0.0000
vt 0.8568 0.0218 0.0000
vt 0.9493 0.3092 0.0000
vt 0.9280 0.3055 0.0000
vt 0.9314 0.3071 0.0000
vt 0.9530 0.3106 0.0000
vt 0.8205 0.3015 0.0000
vt 0.8162 0.3044 0.0000
vt 0.9643 0.3138 0.0000
vt 0.9631 0.3323 0.0000
vt 0.9794 0.3323 0.0000
vt 0.9677 0.3138 0.0000
vt 0.8145 0.3298 0.0000
vt 0.9322 0.3325 0.0000
vt 0.7908 0.3047 0.0000
vt 0.7858 0.3316 0.0000
vt 0.7705 0.3324 0.0000
vt 0.7750 0.3070 0.0000
vt 0.9841 0.3341 0.0000
vt 0.7978 0.3015 0.0000
vt 0.7895 0.3027 0.0000
vt 0.7711 0.3164 0.0000
vt 0.7711 0.3365 0.0000
vt 0.7638 0.3311 0.0000
vt 0.7683 0.3098 0.0000
vt 0.7793 0.3075 0.0000
vt 0.0546 0.8973 0.0000
vt 0.2734 0.8973 0.0000
vt 0.2734 0.9636 0.0000
vt 0.0546 0.9636 0.0000
# 385 texture coords

o s_0018
g s_0018
usemtl slowpoly_ford_escort_Standard00D344
s 1
f 1/1/1 2/2/2 3/3/3 4/4/4 
f 5/5/5 4/4/4 3/3/3 
f 5/5/5 6/6/6 7/7/7 4/4/4 
f 8/8/8 3/3/3 2/2/2 
f 9/9/9 10/10/10 2/2/2 1/1/1 
f 10/10/10 11/11/11 12/12/12 13/13/13 
f 9/9/9 14/14/14 11/11/11 10/10/10 
f 13/13/13 2/2/2 10/10/10 
f 12/12/12 11/11/11 15/15/15 16/16/16 
f 11/11/11 17/17/17 18/18/18 15/15/15 
f 14/14/14 19/19/19 17/17/17 11/11/11 
f 20/20/20 21/21/21 22/22/22 23/23/23 
f 16/16/16 15/15/15 21/21/21 20/20/20 
f 15/15/15 18/18/18 24/24/24 21/21/21 
f 21/21/21 24/24/24 22/22/22 
f 25/25/25 26/26/26 27/27/27 28/28/28 
s 2
f 29/29/29 30/30/30 31/31/31 32/32/32 
s 1
f 33/33/33 34/34/34 32/32/32 
f 35/35/35 33/33/33 32/32/32 
f 36/36/36 35/35/35 32/32/32 
f 36/36/36 32/32/32 31/31/31 37/37/37 
s 2
f 38/38/38 39/39/39 40/40/40 41/41/41 
f 30/30/30 38/38/38 41/41/41 31/31/31 
f 34/34/34 7/7/7 29/29/29 32/32/32 
s 1
f 31/31/31 41/41/41 42/42/42 37/37/37 
f 3/3/3 8/8/8 43/43/43 5/5/5 
f 5/5/5 43/43/43 28/28/28 6/6/6 
f 44/44/44 28/28/28 43/43/43 
f 44/44/44 45/45/45 25/25/25 28/28/28 
f 46/46/46 6/6/6 28/28/28 27/27/27 
f 29/29/29 7/7/7 6/6/6 46/46/46 
f 47/47/47 27/27/27 26/26/26 48/48/48 
f 30/30/30 29/29/29 46/46/46 49/49/49 
f 49/49/49 46/46/46 27/27/27 
f 50/50/50 38/38/38 51/51/51 
f 50/50/50 52/52/52 53/53/53 54/54/54 
f 55/55/55 56/56/56 51/51/51 
f 51/51/51 27/27/27 47/47/47 55/55/55 
f 30/30/30 49/49/49 51/51/51 38/38/38 
f 57/57/57 58/58/58 59/59/59 54/54/54 
f 60/60/60 42/42/42 41/41/41 
f 50/50/50 54/54/54 39/39/39 38/38/38 
f 50/50/50 51/51/51 56/56/56 52/52/52 
f 57/57/57 54/54/54 53/53/53 
f 61/61/61 39/39/39 54/54/54 59/59/59 
f 62/62/62 63/63/63 64/64/64 65/65/65 
f 59/59/59 66/66/66 67/67/67 61/61/61 
f 66/66/66 59/59/59 68/68/68 
f 65/65/65 64/64/64 69/69/69 70/70/70 
f 60/60/60 41/41/41 40/40/40 
f 58/58/58 71/71/71 68/68/68 59/59/59 
f 64/64/64 63/63/63 71/71/71 58/58/58 
f 58/58/58 57/57/57 69/69/69 64/64/64 
s 2
f 55/55/55 47/47/47 72/72/72 73/73/73 
s 1
f 74/74/74 70/70/70 69/69/69 
f 57/57/57 75/75/75 74/74/74 69/69/69 
s 2
f 53/53/53 76/76/76 75/75/75 57/57/57 
f 52/52/52 77/77/77 76/76/76 53/53/53 
f 52/52/52 56/56/56 78/78/78 77/77/77 
s 4
f 56/56/56 55/55/55 73/73/73 78/78/78 
s 2
f 72/72/72 47/47/47 48/48/48 
s 1
f 16/16/16 20/20/20 79/79/79 80/80/80 
s 2
f 81/81/81 45/45/45 44/44/44 
s 4
f 43/43/43 82/82/82 81/81/81 44/44/44 
f 8/8/8 83/83/83 82/82/82 43/43/43 
f 8/8/8 2/2/2 84/84/84 83/83/83 
s 1
f 2/2/2 13/13/13 85/85/85 84/84/84 
f 13/13/13 12/12/12 86/86/86 85/85/85 
f 12/12/12 16/16/16 80/80/80 86/86/86 
f 79/79/79 20/20/20 23/23/23 
f 49/49/49 27/27/27 51/51/51 
f 87/1/87 88/4/88 89/3/89 90/2/90 
f 91/5/91 89/3/89 88/4/88 
f 91/5/91 88/4/88 92/7/92 93/6/93 
f 94/8/94 90/2/90 89/3/89 
f 90/2/90 95/10/95 96/9/96 87/1/87 
f 95/10/95 97/13/97 98/12/98 99/11/99 
f 96/9/96 95/10/95 99/11/99 100/14/100 
f 97/13/97 95/10/95 90/2/90 
f 98/12/98 101/16/101 102/15/102 99/11/99 
f 99/11/99 102/15/102 103/18/103 104/17/104 
f 100/14/100 99/11/99 104/17/104 105/19/105 
f 106/20/106 107/23/107 108/22/108 109/21/109 
f 101/16/101 106/20/106 109/21/109 102/15/102 
f 102/15/102 109/21/109 110/24/110 103/18/103 
f 109/21/109 108/22/108 110/24/110 
f 111/25/111 112/28/112 113/27/113 114/26/114 
s 2
f 115/31/115 116/30/116 117/29/117 118/32/118 
s 1
f 119/33/119 118/32/118 120/34/120 
f 121/35/121 118/32/118 119/33/119 
f 122/36/122 118/32/118 121/35/121 
f 122/36/122 123/37/123 115/31/115 118/32/118 
s 2
f 124/38/124 125/41/125 126/40/126 127/39/127 
f 116/30/116 115/31/115 125/41/125 124/38/124 
f 120/34/120 118/32/118 117/29/117 92/7/92 
s 1
f 115/31/115 123/37/123 128/42/128 125/41/125 
f 89/3/89 91/5/91 129/43/129 94/8/94 
f 91/5/91 93/6/93 112/28/112 129/43/129 
f 130/44/130 129/43/129 112/28/112 
f 130/44/130 112/28/112 111/25/111 131/45/131 
f 132/46/132 113/27/113 112/28/112 93/6/93 
f 117/29/117 132/46/132 93/6/93 92/7/92 
f 133/47/133 134/48/134 114/26/114 113/27/113 
f 116/30/116 135/49/135 132/46/132 117/29/117 
f 135/49/135 113/27/113 132/46/132 
f 136/50/136 137/51/137 124/38/124 
f 136/50/136 138/54/138 139/53/139 140/52/140 
f 141/55/141 137/51/137 142/56/142 
f 137/51/137 141/55/141 133/47/133 113/27/113 
f 116/30/116 124/38/124 137/51/137 135/49/135 
f 143/57/143 138/54/138 144/59/144 145/58/145 
f 146/60/146 125/41/125 128/42/128 
f 136/50/136 124/38/124 127/39/127 138/54/138 
f 136/50/136 140/52/140 142/56/142 137/51/137 
f 143/57/143 139/53/139 138/54/138 
f 147/61/147 144/59/144 138/54/138 127/39/127 
f 148/62/148 149/65/149 150/64/150 151/63/151 
f 144/59/144 147/61/147 152/67/152 153/66/153 
f 153/66/153 154/68/154 144/59/144 
f 149/65/149 155/70/155 156/69/156 150/64/150 
f 146/60/146 126/40/126 125/41/125 
f 145/58/145 144/59/144 154/68/154 157/71/157 
f 150/64/150 145/58/145 157/71/157 151/63/151 
f 145/58/145 150/64/150 156/69/156 143/57/143 
s 2
f 141/55/141 158/73/158 159/72/159 133/47/133 
s 1
f 160/74/160 156/69/156 155/70/155 
f 143/57/143 156/69/156 160/74/160 161/75/161 
s 2
f 139/53/139 143/57/143 161/75/161 162/76/162 
f 140/52/140 139/53/139 162/76/162 163/77/163 
f 140/52/140 163/77/163 164/78/164 142/56/142 
s 4
f 142/56/142 164/78/164 158/73/158 141/55/141 
s 2
f 159/72/159 134/48/134 133/47/133 
s 1
f 101/16/101 165/80/165 166/79/166 106/20/106 
s 2
f 167/81/167 130/44/130 131/45/131 
s 4
f 129/43/129 130/44/130 167/81/167 168/82/168 
f 94/8/94 129/43/129 168/82/168 169/83/169 
f 94/8/94 169/83/169 170/84/170 90/2/90 
s 1
f 90/2/90 170/84/170 171/85/171 97/13/97 
f 97/13/97 171/85/171 172/86/172 98/12/98 
f 98/12/98 172/86/172 165/80/165 101/16/101 
f 166/79/166 107/23/107 106/20/106 
f 135/49/135 137/51/137 113/27/113 
f 173/87/173 174/88/174 175/89/175 
f 174/88/174 176/90/176 175/89/175 
f 176/90/176 177/91/177 175/89/175 
f 177/91/177 178/92/178 175/89/175 
f 178/92/178 179/93/179 175/89/175 
f 179/93/179 180/94/180 175/89/175 
f 180/94/180 181/95/181 175/89/175 
f 181/95/181 182/96/182 175/89/175 
f 182/96/182 183/97/183 175/89/175 
f 183/97/183 184/98/184 175/89/175 
f 184/98/184 185/99/185 175/89/175 
f 185/99/185 186/100/186 175/89/175 
f 186/100/186 187/101/187 175/89/175 
f 187/101/187 188/102/188 175/89/175 
f 188/102/188 189/103/189 175/89/175 
f 189/103/189 190/104/190 175/89/175 
f 190/104/190 191/105/191 175/89/175 
f 191/105/191 192/106/192 175/89/175 
f 192/106/192 193/107/193 175/89/175 
f 193/107/193 173/87/173 175/89/175 
f 194/108/194 195/109/195 196/110/196 
f 194/108/194 197/111/197 195/109/195 
f 194/108/194 198/112/198 197/111/197 
f 194/108/194 199/113/199 198/112/198 
f 194/108/194 200/114/200 199/113/199 
f 194/108/194 201/115/201 200/114/200 
f 194/108/194 202/116/202 201/115/201 
f 194/108/194 203/117/203 202/116/202 
f 194/108/194 204/118/204 203/117/203 
f 194/108/194 205/119/205 204/118/204 
f 194/108/194 206/120/206 205/119/205 
f 194/108/194 207/121/207 206/120/206 
f 194/108/194 208/122/208 207/121/207 
f 194/108/194 209/123/209 208/122/208 
f 194/108/194 210/124/210 209/123/209 
f 194/108/194 211/125/211 210/124/210 
f 194/108/194 212/126/212 211/125/211 
f 194/108/194 213/127/213 212/126/212 
f 194/108/194 214/128/214 213/127/213 
f 194/108/194 196/110/196 214/128/214 
s 2
f 173/129/173 196/130/196 195/131/195 174/132/174 
f 174/132/174 195/131/195 197/133/197 176/134/176 
f 176/134/176 197/133/197 198/135/198 177/136/177 
f 177/136/177 198/135/198 199/137/199 178/138/178 
f 178/138/178 199/137/199 200/139/200 179/140/179 
f 179/140/179 200/139/200 201/141/201 180/142/180 
f 180/142/180 201/141/201 202/143/202 181/144/181 
f 181/144/181 202/143/202 203/145/203 182/146/182 
f 182/146/182 203/145/203 204/147/204 183/148/183 
f 183/148/183 204/147/204 205/149/205 184/150/184 
f 184/150/184 205/149/205 206/151/206 185/152/185 
f 185/152/185 206/151/206 207/153/207 186/154/186 
f 186/154/186 207/153/207 208/155/208 187/156/187 
f 187/156/187 208/155/208 209/157/209 188/158/188 
f 188/158/188 209/157/209 210/159/210 189/160/189 
f 189/160/189 210/159/210 211/161/211 190/162/190 
f 190/162/190 211/161/211 212/163/212 191/164/191 
f 191/164/191 212/163/212 213/165/213 192/166/192 
f 192/167/192 213/168/213 214/169/214 193/170/193 
f 193/170/193 214/169/214 196/130/196 173/129/173 
s 1
f 215/87/215 216/89/216 217/88/217 
f 217/88/217 216/89/216 218/90/197 
f 218/90/197 216/89/216 219/91/218 
f 219/91/218 216/89/216 220/92/199 
f 220/92/199 216/89/216 221/93/200 
f 221/93/200 216/89/216 222/94/219 
f 222/94/219 216/89/216 223/95/202 
f 223/95/202 216/89/216 224/96/203 
f 224/96/203 216/89/216 225/97/220 
f 225/97/220 216/89/216 226/98/221 
f 226/98/221 216/89/216 227/99/222 
f 227/99/222 216/89/216 228/100/207 
f 228/100/207 216/89/216 229/101/208 
f 229/101/208 216/89/216 230/102/223 
f 230/102/223 216/89/216 231/103/210 
f 231/103/210 216/89/216 232/104/224 
f 232/104/224 216/89/216 233/105/212 
f 233/105/212 216/89/216 234/106/213 
f 234/106/213 216/89/216 235/107/214 
f 235/107/214 216/89/216 215/87/215 
f 236/108/225 237/110/173 238/109/226 
f 236/108/225 238/109/226 239/111/176 
f 236/108/225 239/111/176 240/112/177 
f 236/108/225 240/112/177 241/113/178 
f 236/108/225 241/113/178 242/114/179 
f 236/108/225 242/114/179 243/115/180 
f 236/108/225 243/115/180 244/116/181 
f 236/108/225 244/116/181 245/117/227 
f 236/108/225 245/117/227 246/118/228 
f 236/108/225 246/118/228 247/119/229 
f 236/108/225 247/119/229 248/120/230 
f 236/108/225 248/120/230 249/121/186 
f 236/108/225 249/121/186 250/122/187 
f 236/108/225 250/122/187 251/123/188 
f 236/108/225 251/123/188 252/124/231 
f 236/108/225 252/124/231 253/125/232 
f 236/108/225 253/125/232 254/126/191 
f 236/108/225 254/126/191 255/127/192 
f 236/108/225 255/127/192 256/128/193 
f 236/108/225 256/128/193 237/110/173 
s 2
f 238/131/226 237/130/173 215/129/215 217/132/217 
f 239/133/176 238/131/226 217/132/217 218/134/197 
f 240/135/177 239/133/176 218/134/197 219/136/218 
f 241/137/178 240/135/177 219/136/218 220/138/199 
f 242/139/179 241/137/178 220/138/199 221/140/200 
f 243/141/180 242/139/179 221/140/200 222/142/219 
f 244/143/181 243/141/180 222/142/219 223/144/202 
f 245/145/227 244/143/181 223/144/202 224/146/203 
f 246/147/228 245/145/227 224/146/203 225/148/220 
f 247/149/229 246/147/228 225/148/220 226/150/221 
f 248/151/230 247/149/229 226/150/221 227/152/222 
f 249/153/186 248/151/230 227/152/222 228/154/207 
f 250/155/187 249/153/186 228/154/207 229/156/208 
f 251/157/188 250/155/187 229/156/208 230/158/223 
f 252/159/231 251/157/188 230/158/223 231/160/210 
f 253/161/232 252/159/231 231/160/210 232/162/224 
f 254/163/191 253/161/232 232/162/224 233/164/212 
f 255/165/192 254/163/191 233/164/212 234/166/213 
f 256/169/193 255/168/192 234/167/213 235/170/214 
f 237/130/173 256/169/193 235/170/214 215/129/215 
s 1
f 257/87/173 258/88/233 259/89/175 
f 258/88/233 260/90/176 259/89/175 
f 260/90/176 261/91/177 259/89/175 
f 261/91/177 262/92/178 259/89/175 
f 262/92/178 263/93/179 259/89/175 
f 263/93/179 264/94/180 259/89/175 
f 264/94/180 265/95/181 259/89/175 
f 265/95/181 266/96/182 259/89/175 
f 266/96/182 267/97/228 259/89/175 
f 267/97/228 268/98/184 259/89/175 
f 268/98/184 269/99/185 259/89/175 
f 269/99/185 270/100/186 259/89/175 
f 270/100/186 271/101/187 259/89/175 
f 271/101/187 272/102/188 259/89/175 
f 272/102/188 273/103/189 259/89/175 
f 273/103/189 274/104/190 259/89/175 
f 274/104/190 275/105/191 259/89/175 
f 275/105/191 276/106/234 259/89/175 
f 276/106/234 277/107/193 259/89/175 
f 277/107/193 257/87/173 259/89/175 
f 278/108/194 279/109/217 280/110/215 
f 278/108/194 281/111/197 279/109/217 
f 278/108/194 282/112/218 281/111/197 
f 278/108/194 283/113/199 282/112/218 
f 278/108/194 284/114/200 283/113/199 
f 278/108/194 285/115/235 284/114/200 
f 278/108/194 286/116/202 285/115/235 
f 278/108/194 287/117/236 286/116/202 
f 278/108/194 288/118/237 287/117/236 
f 278/108/194 289/119/205 288/118/237 
f 278/108/194 290/120/206 289/119/205 
f 278/108/194 291/121/207 290/120/206 
f 278/108/194 292/122/208 291/121/207 
f 278/108/194 293/123/209 292/122/208 
f 278/108/194 294/124/210 293/123/209 
f 278/108/194 295/125/211 294/124/210 
f 278/108/194 296/126/212 295/125/211 
f 278/108/194 297/127/213 296/126/212 
f 278/108/194 298/128/214 297/127/213 
f 278/108/194 280/110/215 298/128/214 
s 2
f 257/129/173 280/130/215 279/131/217 258/132/233 
f 258/132/233 279/131/217 281/133/197 260/134/176 
f 260/134/176 281/133/197 282/135/218 261/136/177 
f 261/136/177 282/135/218 283/137/199 262/138/178 
f 262/138/178 283/137/199 284/139/200 263/140/179 
f 263/140/179 284/139/200 285/141/235 264/142/180 
f 264/142/180 285/141/235 286/143/202 265/144/181 
f 265/144/181 286/143/202 287/145/236 266/146/182 
f 266/146/182 287/145/236 288/147/237 267/148/228 
f 267/148/228 288/147/237 289/149/205 268/150/184 
f 268/150/184 289/149/205 290/151/206 269/152/185 
f 269/152/185 290/151/206 291/153/207 270/154/186 
f 270/154/186 291/153/207 292/155/208 271/156/187 
f 271/156/187 292/155/208 293/157/209 272/158/188 
f 272/158/188 293/157/209 294/159/210 273/160/189 
f 273/160/189 294/159/210 295/161/211 274/162/190 
f 274/162/190 295/161/211 296/163/212 275/164/191 
f 275/164/191 296/163/212 297/165/213 276/166/234 
f 276/167/234 297/168/213 298/169/214 277/170/193 
f 277/170/193 298/169/214 280/130/215 257/129/173 
s 1
f 299/87/215 300/89/216 301/88/217 
f 301/88/217 300/89/216 302/90/197 
f 302/90/197 300/89/216 303/91/218 
f 303/91/218 300/89/216 304/92/199 
f 304/92/199 300/89/216 305/93/200 
f 305/93/200 300/89/216 306/94/235 
f 306/94/235 300/89/216 307/95/238 
f 307/95/238 300/89/216 308/96/236 
f 308/96/236 300/89/216 309/97/220 
f 309/97/220 300/89/216 310/98/221 
f 310/98/221 300/89/216 311/99/222 
f 311/99/222 300/89/216 312/100/207 
f 312/100/207 300/89/216 313/101/208 
f 313/101/208 300/89/216 314/102/209 
f 314/102/209 300/89/216 315/103/210 
f 315/103/210 300/89/216 316/104/239 
f 316/104/239 300/89/216 317/105/212 
f 317/105/212 300/89/216 318/106/213 
f 318/106/213 300/89/216 319/107/214 
f 319/107/214 300/89/216 299/87/215 
f 320/108/225 321/110/240 322/109/241 
f 320/108/225 322/109/241 323/111/176 
f 320/108/225 323/111/176 324/112/177 
f 320/108/225 324/112/177 325/113/178 
f 320/108/225 325/113/178 326/114/179 
f 320/108/225 326/114/179 327/115/242 
f 320/108/225 327/115/242 328/116/181 
f 320/108/225 328/116/181 329/117/182 
f 320/108/225 329/117/182 330/118/228 
f 320/108/225 330/118/228 331/119/229 
f 320/108/225 331/119/229 332/120/230 
f 320/108/225 332/120/230 333/121/186 
f 320/108/225 333/121/186 334/122/243 
f 320/108/225 334/122/243 335/123/188 
f 320/108/225 335/123/188 336/124/231 
f 320/108/225 336/124/231 337/125/244 
f 320/108/225 337/125/244 338/126/191 
f 320/108/225 338/126/191 339/127/234 
f 320/108/225 339/127/234 340/128/193 
f 320/108/225 340/128/193 321/110/240 
s 2
f 322/131/241 321/130/240 299/129/215 301/132/217 
f 323/133/176 322/131/241 301/132/217 302/134/197 
f 324/135/177 323/133/176 302/134/197 303/136/218 
f 325/137/178 324/135/177 303/136/218 304/138/199 
f 326/139/179 325/137/178 304/138/199 305/140/200 
f 327/141/242 326/139/179 305/140/200 306/142/235 
f 328/143/181 327/141/242 306/142/235 307/144/238 
f 329/145/182 328/143/181 307/144/238 308/146/236 
f 330/147/228 329/145/182 308/146/236 309/148/220 
f 331/149/229 330/147/228 309/148/220 310/150/221 
f 332/151/230 331/149/229 310/150/221 311/152/222 
f 333/153/186 332/151/230 311/152/222 312/154/207 
f 334/155/243 333/153/186 312/154/207 313/156/208 
f 335/157/188 334/155/243 313/156/208 314/158/209 
f 336/159/231 335/157/188 314/158/209 315/160/210 
f 337/161/244 336/159/231 315/160/210 316/162/239 
f 338/163/191 337/161/244 316/162/239 317/164/212 
f 339/165/234 338/163/191 317/164/212 318/166/213 
f 340/169/193 339/168/234 318/167/213 319/170/214 
f 321/130/240 340/169/193 319/170/214 299/129/215 
s 4
f 341/171/245 342/172/246 343/173/247 344/174/248 
f 342/172/246 345/175/249 346/176/250 343/173/247 
f 345/175/249 347/177/251 348/178/252 346/176/250 
f 347/177/251 349/179/253 350/180/254 348/178/252 
f 24/181/24 341/171/245 344/174/248 22/182/22 
f 17/183/17 19/184/19 351/185/255 18/186/18 
f 352/187/256 353/188/257 351/185/255 19/184/19 
f 352/187/256 354/189/258 355/190/259 353/188/257 
f 354/189/258 356/191/260 357/192/261 355/190/259 
f 358/193/262 357/192/261 356/191/260 359/194/263 
f 351/185/255 341/171/245 24/181/24 18/186/18 
f 350/180/254 349/179/253 360/195/264 361/196/265 
f 349/179/253 347/177/251 357/192/261 358/193/262 
f 347/177/251 345/175/249 355/190/259 357/192/261 
f 345/175/249 342/172/246 353/188/257 355/190/259 
f 353/188/257 342/172/246 341/171/245 351/185/255 
f 358/193/262 359/194/263 362/197/266 363/198/267 
f 349/179/253 358/193/262 363/198/267 360/195/264 
f 364/171/268 365/174/269 366/173/270 367/172/271 
f 367/172/271 366/173/270 368/176/272 369/175/273 
f 369/175/273 368/176/272 370/178/274 371/177/275 
f 371/177/275 370/178/274 372/180/276 373/179/277 
f 110/181/110 108/182/108 365/174/269 364/171/268 
f 104/183/104 103/186/103 374/185/278 105/184/105 
f 374/185/278 375/188/279 376/187/280 105/184/105 
f 376/187/280 375/188/279 377/190/281 378/189/282 
f 378/189/282 377/190/281 379/192/283 380/191/284 
f 381/193/285 382/194/286 380/191/284 379/192/283 
f 374/185/278 103/186/103 110/181/110 364/171/268 
f 372/180/276 361/196/265 360/195/264 373/179/277 
f 373/179/277 381/193/285 379/192/283 371/177/275 
f 371/177/275 379/192/283 377/190/281 369/175/273 
f 369/175/273 377/190/281 375/188/279 367/172/271 
f 375/188/279 374/185/278 364/171/268 367/172/271 
f 362/197/266 382/194/286 381/193/285 363/198/267 
f 363/198/267 381/193/285 373/179/277 360/195/264 
s 2
f 383/199/287 384/200/288 385/201/289 386/202/290 
f 387/203/291 388/204/292 389/205/293 390/206/294 
f 389/205/293 354/207/258 352/208/256 391/209/295 
f 390/206/294 389/205/293 391/209/295 392/210/296 
f 359/211/263 356/212/260 388/204/292 393/213/297 
f 394/214/298 395/215/299 396/216/300 397/217/301 
f 398/218/302 386/202/290 399/219/303 400/220/304 
f 401/221/305 402/222/306 403/223/307 404/224/308 
f 405/225/309 406/226/310 403/223/307 402/222/306 
f 386/202/290 385/201/289 399/219/303 
f 383/199/287 407/227/311 408/228/312 384/200/288 
f 409/229/313 410/230/314 407/227/311 383/199/287 
f 411/231/315 386/202/290 398/218/302 
f 398/218/302 400/220/304 412/232/316 413/233/317 
f 412/232/316 414/234/318 415/235/319 413/233/317 
f 416/236/320 417/237/321 406/226/310 405/225/309 
f 414/234/318 417/237/321 416/236/320 415/235/319 
f 407/227/311 390/206/294 392/210/296 408/228/312 
f 388/204/292 356/212/260 354/207/258 389/205/293 
f 388/204/292 387/203/291 418/238/322 393/213/297 
f 387/203/291 390/206/294 407/227/311 
f 410/230/314 418/238/322 387/203/291 407/227/311 
f 409/229/313 383/199/287 386/202/290 411/231/315 
f 385/201/289 384/200/288 4/239/4 7/240/7 
f 391/209/295 352/208/256 19/241/19 14/242/14 
f 408/228/312 392/210/296 9/243/9 1/244/1 
f 399/219/303 385/201/289 7/240/7 34/245/34 
f 400/220/304 33/246/33 35/247/35 412/232/316 
f 67/248/67 419/249/323 396/216/300 61/250/61 
f 61/250/61 396/216/300 395/215/299 39/251/39 
f 397/217/301 396/216/300 419/249/323 
f 403/223/307 60/252/60 40/253/40 404/224/308 
f 404/224/308 40/253/40 39/251/39 395/215/299 
f 401/221/305 404/224/308 395/215/299 394/214/298 
f 403/223/307 406/226/310 42/254/42 60/252/60 
f 417/237/321 37/255/37 42/254/42 406/226/310 
f 414/234/318 36/256/36 37/255/37 417/237/321 
f 414/234/318 412/232/316 35/247/35 36/256/36 
f 33/246/33 400/220/304 399/219/303 34/245/34 
f 392/210/296 391/209/295 14/242/14 9/243/9 
f 1/244/1 4/239/4 384/200/288 408/228/312 
f 398/218/302 413/233/317 420/257/324 421/258/325 
f 413/233/317 415/235/319 422/259/326 420/257/324 
f 423/260/327 394/214/298 397/217/301 424/261/328 
f 425/262/329 401/221/305 394/214/298 423/260/327 
f 426/263/330 405/225/309 402/222/306 427/264/331 
f 402/222/306 401/221/305 425/262/329 427/264/331 
f 428/265/332 416/236/320 405/225/309 426/263/330 
f 415/235/319 416/236/320 428/265/332 422/259/326 
f 411/231/315 398/218/302 421/258/325 429/266/333 
f 410/230/314 409/229/313 430/267/334 431/268/335 
f 418/238/322 410/230/314 431/268/335 432/269/336 
f 433/270/337 393/213/297 418/238/322 432/269/336 
f 362/271/266 359/211/263 393/213/297 433/270/337 
f 409/229/313 411/231/315 429/266/333 430/267/334 
f 397/217/301 419/249/323 434/272/338 424/261/328 
f 435/199/339 436/202/340 437/201/341 438/200/342 
f 439/203/343 440/206/344 441/205/345 442/204/346 
f 441/205/345 443/209/347 376/208/280 378/207/282 
f 440/206/344 444/210/348 443/209/347 441/205/345 
f 382/211/286 445/213/349 442/204/346 380/212/284 
f 446/214/350 447/217/351 448/216/352 449/215/353 
f 450/218/354 451/220/355 452/219/356 436/202/340 
f 453/221/357 454/224/358 455/223/359 456/222/360 
f 457/225/361 456/222/360 455/223/359 458/226/362 
f 436/202/340 452/219/356 437/201/341 
f 435/199/339 438/200/342 459/228/363 460/227/364 
f 461/229/365 435/199/339 460/227/364 462/230/366 
f 463/231/367 450/218/354 436/202/340 
f 450/218/354 464/233/368 465/232/369 451/220/355 
f 465/232/369 464/233/368 466/235/370 467/234/371 
f 468/236/372 457/225/361 458/226/362 469/237/373 
f 467/234/371 466/235/370 468/236/372 469/237/373 
f 460/227/364 459/228/363 444/210/348 440/206/344 
f 442/204/346 441/205/345 378/207/282 380/212/284 
f 442/204/346 445/213/349 470/238/374 439/203/343 
f 439/203/343 460/227/364 440/206/344 
f 462/230/366 460/227/364 439/203/343 470/238/374 
f 461/229/365 463/231/367 436/202/340 435/199/339 
f 437/201/341 92/240/92 88/239/88 438/200/342 
f 443/209/347 100/242/100 105/241/105 376/208/280 
f 459/228/363 87/244/87 96/243/96 444/210/348 
f 452/219/356 120/245/120 92/240/92 437/201/341 
f 451/220/355 465/232/369 121/247/121 119/246/119 
f 152/248/152 147/250/147 448/216/352 471/249/375 
f 147/250/147 127/251/127 449/215/353 448/216/352 
f 447/217/351 471/249/375 448/216/352 
f 455/223/359 454/224/358 126/253/126 146/252/146 
f 454/224/358 449/215/353 127/251/127 126/253/126 
f 453/221/357 446/214/350 449/215/353 454/224/358 
f 455/223/359 146/252/146 128/254/128 458/226/362 
f 469/237/373 458/226/362 128/254/128 123/255/123 
f 467/234/371 469/237/373 123/255/123 122/256/122 
f 467/234/371 122/256/122 121/247/121 465/232/369 
f 119/246/119 120/245/120 452/219/356 451/220/355 
f 444/210/348 96/243/96 100/242/100 443/209/347 
f 87/244/87 459/228/363 438/200/342 88/239/88 
f 420/257/324 464/233/368 450/218/354 421/258/325 
f 422/259/326 466/235/370 464/233/368 420/257/324 
f 423/260/327 424/261/328 447/217/351 446/214/350 
f 425/262/329 423/260/327 446/214/350 453/221/357 
f 426/263/330 427/264/331 456/222/360 457/225/361 
f 425/262/329 453/221/357 456/222/360 427/264/331 
f 428/265/332 426/263/330 457/225/361 468/236/372 
f 428/265/332 468/236/372 466/235/370 422/259/326 
f 421/258/325 450/218/354 463/231/367 429/266/333 
f 430/267/334 461/229/365 462/230/366 431/268/335 
f 431/268/335 462/230/366 470/238/374 432/269/336 
f 433/270/337 432/269/336 470/238/374 445/213/349 
f 362/271/266 433/270/337 445/213/349 382/211/286 
f 429/266/333 463/231/367 461/229/365 430/267/334 
f 434/272/338 471/249/375 447/217/351 424/261/328 
f 472/273/376 473/274/377 66/275/66 68/276/68 
f 472/273/376 474/277/378 475/278/379 473/274/377 
s 4
f 473/274/377 419/279/323 67/280/67 66/275/66 
s 2
f 476/281/380 477/282/381 474/277/378 472/273/376 
f 71/283/71 476/281/380 472/273/376 68/276/68 
f 476/281/380 71/283/71 63/284/63 478/285/382 
f 62/286/62 478/285/382 63/284/63 
s 4
f 434/287/338 419/279/323 473/274/377 475/278/379 
s 2
f 476/281/380 478/285/382 479/288/383 477/282/381 
f 480/273/384 154/276/154 153/275/153 481/274/385 
f 480/273/384 481/274/385 475/278/379 474/277/378 
s 4
f 481/274/385 153/275/153 152/280/152 471/279/375 
s 2
f 482/281/386 480/273/384 474/277/378 477/282/381 
f 157/283/157 154/276/154 480/273/384 482/281/386 
f 482/281/386 483/285/387 151/284/151 157/283/157 
f 148/286/148 151/284/151 483/285/387 
s 4
f 434/287/338 475/278/379 481/274/385 471/279/375 
s 2
f 479/288/383 483/285/387 482/281/386 477/282/381 
s 8
f 350/289/254 361/290/265 484/291/388 485/292/389 
f 486/293/390 487/294/391 488/295/392 489/296/393 
f 344/297/248 343/298/247 485/292/389 
f 343/298/247 346/299/250 485/292/389 
f 346/299/250 348/300/252 485/292/389 
f 348/300/252 350/289/254 485/292/389 
s 1
f 486/293/390 490/301/394 491/302/395 487/294/391 
f 492/303/396 493/304/397 491/302/395 490/301/394 
f 494/305/398 495/306/399 493/304/397 492/303/396 
f 494/305/398 496/307/400 495/306/399 
f 497/308/401 498/309/402 485/292/389 499/310/403 
f 500/311/404 501/312/405 498/309/402 497/308/401 
f 502/313/406 503/314/407 501/312/405 500/311/404 
f 504/315/408 505/316/409 503/314/407 502/313/406 
s 8
f 478/317/382 486/293/390 489/296/393 479/318/383 
f 499/310/403 487/294/391 26/319/26 25/320/25 
f 499/310/403 25/320/25 45/321/45 
f 487/294/391 48/322/48 26/319/26 
s 2
f 79/323/79 498/309/402 501/312/405 80/324/80 
s 16
f 45/321/45 81/325/81 497/308/401 499/310/403 
f 81/325/81 82/326/82 500/311/404 497/308/401 
f 82/326/82 83/327/83 502/313/406 500/311/404 
s 2
f 83/327/83 84/328/84 504/315/408 502/313/406 
f 85/329/85 505/316/409 504/315/408 84/328/84 
s 4
f 86/330/86 503/314/407 505/316/409 85/329/85 
s 2
f 80/324/80 501/312/405 503/314/407 86/330/86 
f 23/331/23 485/292/389 498/309/402 79/323/79 
s 8
f 22/332/22 344/297/248 485/292/389 
f 23/331/23 22/332/22 485/292/389 
f 62/333/62 65/334/65 486/293/390 
f 65/334/65 70/335/70 486/293/390 
f 478/317/382 62/333/62 486/293/390 
s 16
f 72/336/72 491/302/395 493/304/397 73/337/73 
s 4
f 70/335/70 74/338/74 490/301/394 486/293/390 
f 74/338/74 75/339/75 492/303/396 490/301/394 
f 75/339/75 76/340/76 494/305/398 492/303/396 
s 8
f 76/340/76 77/341/77 496/307/400 494/305/398 
f 78/342/78 495/306/399 496/307/400 77/341/77 
s 16
f 73/337/73 493/304/397 495/306/399 78/342/78 
f 48/322/48 487/294/391 491/302/395 72/336/72 
s 8
f 487/294/391 499/310/403 506/343/410 488/295/392 
f 499/310/403 485/292/389 484/291/388 506/343/410 
f 372/289/276 507/292/411 484/291/388 361/290/265 
f 508/293/412 489/296/393 488/295/392 509/294/413 
f 365/297/269 507/292/411 366/298/270 
f 366/298/270 507/292/411 368/299/272 
f 368/299/272 507/292/411 370/300/274 
f 370/300/274 507/292/411 372/289/276 
s 1
f 508/293/412 509/294/413 510/302/414 511/301/415 
f 510/302/414 512/304/416 513/303/417 511/301/415 
f 512/304/416 514/306/418 515/305/419 513/303/417 
f 515/305/419 514/306/418 516/307/420 
f 507/292/411 517/309/421 518/308/422 519/310/423 
f 517/309/421 520/312/424 521/311/425 518/308/422 
f 520/312/424 522/314/426 523/313/427 521/311/425 
f 522/314/426 524/316/428 525/315/429 523/313/427 
s 8
f 483/317/387 479/318/383 489/296/393 508/293/412 
f 519/310/423 111/320/111 114/319/114 509/294/413 
f 519/310/423 131/321/131 111/320/111 
f 509/294/413 114/319/114 134/322/134 
s 2
f 520/312/424 517/309/421 166/323/166 165/324/165 
s 16
f 131/321/131 519/310/423 518/308/422 167/325/167 
f 167/325/167 518/308/422 521/311/425 168/326/168 
f 168/326/168 521/311/425 523/313/427 169/327/169 
s 2
f 169/327/169 523/313/427 525/315/429 170/328/170 
f 525/315/429 524/316/428 171/329/171 170/328/170 
s 4
f 524/316/428 522/314/426 172/330/172 171/329/171 
s 2
f 522/314/426 520/312/424 165/324/165 172/330/172 
f 517/309/421 507/292/411 107/331/107 166/323/166 
s 8
f 108/332/108 507/292/411 365/297/269 
f 107/331/107 507/292/411 108/332/108 
f 148/333/148 508/293/412 149/334/149 
f 149/334/149 508/293/412 155/335/155 
f 483/317/387 508/293/412 148/333/148 
s 16
f 512/304/416 510/302/414 159/336/159 158/337/158 
s 4
f 155/335/155 508/293/412 511/301/415 160/338/160 
f 160/338/160 511/301/415 513/303/417 161/339/161 
f 161/339/161 513/303/417 515/305/419 162/340/162 
s 8
f 162/340/162 515/305/419 516/307/420 163/341/163 
f 516/307/420 514/306/418 164/342/164 163/341/163 
s 16
f 514/306/418 512/304/416 158/337/158 164/342/164 
f 510/302/414 509/294/413 134/322/134 159/336/159 
s 8
f 506/343/410 519/310/423 509/294/413 488/295/392 
f 484/291/388 507/292/411 519/310/423 506/343/410 
s 1
f 526/344/430 527/345/431 528/346/432 529/347/433 
f 530/348/434 526/344/430 529/347/433 
f 531/349/435 530/348/434 529/347/433 
f 532/350/436 531/349/435 529/347/433 
f 528/346/432 527/345/431 533/351/437 534/352/438 
f 535/353/439 536/354/440 534/352/438 533/351/437 
f 536/354/440 535/353/439 537/355/441 538/356/442 
f 539/357/443 538/356/442 537/355/441 
f 540/358/444 541/359/445 542/360/446 543/361/447 
f 541/359/445 544/362/448 545/363/449 542/360/446 
s 2
f 546/364/450 543/361/447 530/365/434 531/366/435 
s 1
f 540/358/444 543/361/447 546/364/450 547/367/451 
s 4
f 542/360/446 545/363/449 527/368/431 526/369/430 
f 545/363/449 548/370/452 533/371/437 527/368/431 
s 2
f 535/372/439 533/371/437 548/370/452 549/373/453 
s 4
f 531/366/435 532/374/436 547/367/451 546/364/450 
f 526/369/430 530/365/434 543/361/447 542/360/446 
s 1
f 548/370/452 545/363/449 544/362/448 550/375/454 
f 550/375/454 551/376/455 549/373/453 548/370/452 
s 2
f 552/377/456 539/378/443 537/379/441 553/380/457 
s 1
f 551/376/455 554/381/458 553/380/457 549/373/453 
s 2
f 537/379/441 535/372/439 549/373/453 553/380/457 
s 1
f 554/381/458 552/377/456 553/380/457 
f 555/344/459 556/347/460 557/346/461 558/345/462 
f 559/348/463 556/347/460 555/344/459 
f 560/349/464 556/347/460 559/348/463 
f 561/350/465 556/347/460 560/349/464 
f 562/351/466 558/345/462 557/346/461 563/352/467 
f 563/352/467 564/354/468 565/353/469 562/351/466 
f 564/354/468 566/356/470 567/355/471 565/353/469 
f 568/357/472 567/355/471 566/356/470 
f 569/360/473 570/359/474 571/358/475 572/361/476 
f 570/359/474 569/360/473 573/363/477 574/362/478 
s 2
f 559/365/463 572/361/476 575/364/479 560/366/464 
s 1
f 575/364/479 572/361/476 571/358/475 576/367/480 
s 4
f 569/360/473 555/369/459 558/368/462 573/363/477 
f 573/363/477 558/368/462 562/371/466 577/370/481 
s 2
f 565/372/469 578/373/482 577/370/481 562/371/466 
s 4
f 576/367/480 561/374/465 560/366/464 575/364/479 
f 555/369/459 569/360/473 572/361/476 559/365/463 
s 1
f 577/370/481 579/375/483 574/362/478 573/363/477 
f 578/373/482 580/376/484 579/375/483 577/370/481 
s 2
f 567/379/471 568/378/472 581/377/485 582/380/486 
s 1
f 580/376/484 578/373/482 582/380/486 583/381/487 
s 2
f 567/379/471 582/380/486 578/373/482 565/372/469 
s 1
f 583/381/487 582/380/486 581/377/485 
f 584/344/430 585/345/431 586/346/432 587/347/433 
f 588/348/434 584/344/430 587/347/433 
f 589/349/435 588/348/434 587/347/433 
f 590/350/436 589/349/435 587/347/433 
f 586/346/432 585/345/431 591/351/437 592/352/488 
f 593/353/439 594/354/440 592/352/488 591/351/437 
f 594/354/440 593/353/439 595/355/441 596/356/442 
f 597/357/443 596/356/442 595/355/441 
f 598/358/444 599/359/445 600/360/446 601/361/447 
f 599/359/445 602/362/448 603/363/449 600/360/446 
s 2
f 604/364/450 601/361/447 588/365/434 589/366/435 
s 1
f 598/358/444 601/361/447 604/364/450 605/367/451 
s 4
f 600/360/446 603/363/449 585/368/431 584/369/430 
f 603/363/449 606/370/452 591/371/437 585/368/431 
s 2
f 593/372/439 591/371/437 606/370/452 607/373/453 
s 4
f 589/366/435 590/374/436 605/367/451 604/364/450 
f 584/369/430 588/365/434 601/361/447 600/360/446 
s 1
f 606/370/452 603/363/449 602/362/448 608/375/454 
f 608/375/454 609/376/455 607/373/453 606/370/452 
s 2
f 610/377/456 597/378/443 595/379/441 611/380/457 
s 1
f 609/376/455 612/381/458 611/380/457 607/373/453 
s 2
f 595/379/441 593/372/439 607/373/453 611/380/457 
s 1
f 612/381/458 610/377/456 611/380/457 
f 613/344/459 614/347/460 615/346/461 616/345/462 
f 617/348/463 614/347/460 613/344/459 
f 618/349/464 614/347/460 617/348/463 
f 619/350/465 614/347/460 618/349/464 
f 620/351/466 616/345/462 615/346/461 621/352/489 
f 621/352/489 622/354/468 623/353/469 620/351/466 
f 622/354/468 624/356/470 625/355/471 623/353/469 
f 626/357/472 625/355/471 624/356/470 
f 627/360/473 628/359/474 629/358/475 630/361/476 
f 628/359/474 627/360/473 631/363/477 632/362/478 
s 2
f 617/365/463 630/361/476 633/364/479 618/366/464 
s 1
f 633/364/479 630/361/476 629/358/475 634/367/480 
s 4
f 627/360/473 613/369/459 616/368/462 631/363/477 
f 631/363/477 616/368/462 620/371/466 635/370/481 
s 2
f 623/372/469 636/373/482 635/370/481 620/371/466 
s 4
f 634/367/480 619/374/465 618/366/464 633/364/479 
f 613/369/459 627/360/473 630/361/476 617/365/463 
s 1
f 635/370/481 637/375/483 632/362/478 631/363/477 
f 636/373/482 638/376/484 637/375/483 635/370/481 
s 2
f 625/379/471 626/378/472 639/377/485 640/380/486 
s 1
f 638/376/484 636/373/482 640/380/486 641/381/487 
s 2
f 625/379/471 640/380/486 636/373/482 623/372/469 
s 1
f 641/381/487 640/380/486 639/377/485 
f 642/344/490 643/347/491 644/346/492 645/345/493 
f 646/348/494 643/347/491 642/344/490 
f 647/349/495 643/347/491 646/348/494 
f 648/350/496 643/347/491 647/349/495 
f 649/351/497 645/345/493 644/346/492 650/352/498 
f 650/352/498 651/354/499 652/353/500 649/351/497 
f 651/354/499 653/356/501 654/355/502 652/353/500 
f 655/357/503 654/355/502 653/356/501 
f 656/360/504 657/359/505 658/358/506 659/361/507 
f 657/359/505 656/360/504 660/363/508 661/362/509 
s 2
f 646/365/494 659/361/507 662/364/510 647/366/495 
s 1
f 662/364/510 659/361/507 658/358/506 663/367/511 
s 4
f 656/360/504 642/369/490 645/368/493 660/363/508 
f 660/363/508 645/368/493 649/371/497 664/370/512 
s 2
f 652/372/500 665/373/513 664/370/512 649/371/497 
s 4
f 663/367/511 648/374/496 647/366/495 662/364/510 
f 642/369/490 656/360/504 659/361/507 646/365/494 
s 1
f 664/370/512 666/375/514 661/362/509 660/363/508 
f 665/373/513 667/376/515 666/375/514 664/370/512 
s 2
f 654/379/502 655/378/503 668/377/516 669/380/517 
s 1
f 667/376/515 665/373/513 669/380/517 670/381/518 
s 2
f 654/379/502 669/380/517 665/373/513 652/372/500 
s 1
f 670/381/518 669/380/517 668/377/516 
f 671/344/519 672/345/520 673/346/521 674/347/522 
f 675/348/523 671/344/519 674/347/522 
f 676/349/524 675/348/523 674/347/522 
f 677/350/525 676/349/524 674/347/522 
f 673/346/521 672/345/520 678/351/526 679/352/527 
f 680/353/528 681/354/529 679/352/527 678/351/526 
f 681/354/529 680/353/528 682/355/530 683/356/531 
f 684/357/532 683/356/531 682/355/530 
f 685/358/533 686/359/534 687/360/535 688/361/536 
f 686/359/534 689/362/537 690/363/538 687/360/535 
s 2
f 691/364/539 688/361/536 675/365/523 676/366/524 
s 1
f 685/358/533 688/361/536 691/364/539 692/367/540 
s 4
f 687/360/535 690/363/538 672/368/520 671/369/519 
f 690/363/538 693/370/541 678/371/526 672/368/520 
s 2
f 680/372/528 678/371/526 693/370/541 694/373/542 
s 4
f 676/366/524 677/374/525 692/367/540 691/364/539 
f 671/369/519 675/365/523 688/361/536 687/360/535 
s 1
f 693/370/541 690/363/538 689/362/537 695/375/543 
f 695/375/543 696/376/544 694/373/542 693/370/541 
s 2
f 697/377/545 684/378/532 682/379/530 698/380/546 
s 1
f 696/376/544 699/381/547 698/380/546 694/373/542 
s 2
f 682/379/530 680/372/528 694/373/542 698/380/546 
s 1
f 699/381/547 697/377/545 698/380/546 
f 700/382/548 701/383/548 702/384/548 703/385/548 
f 704/382/549 705/383/549 706/384/549 707/385/549 
# 508 polygons - 264 triangles

